<?xml version="1.0" encoding="UTF-8"?>
<svg id="Layer_1" data-name="Layer 1" xmlns="http://www.w3.org/2000/svg" version="1.1" viewBox="0 0 700 96.1">
  <defs>
    <style>
      .cls-1, .cls-2, .cls-3, .cls-4, .cls-5 {
        stroke-width: 0px;
      }

      .cls-1, .cls-6 {
        fill: #010101;
      }

      .cls-2 {
        fill: #007dc5;
      }

      .cls-3 {
        fill: #231f20;
      }

      .cls-4 {
        fill: #e5e5e5;
      }

      .cls-6 {
        stroke: #010101;
        stroke-miterlimit: 10;
        stroke-width: 3px;
      }

      .cls-5 {
        fill: #fff;
      }
    </style>
  </defs>
  <g>
    <g id="Bottom_Line" data-name="Bottom Line">
      <rect id="Bottom_Line-2" data-name="Bottom Line" class="cls-1" x="549.5" y="77.5" width="135" height="2.9"/>
    </g>
    <g id="Top_Line" data-name="Top Line">
      <rect id="Top_Line-2" data-name="Top Line" class="cls-1" x="549.5" y="16.4" width="135" height="2.9"/>
    </g>
    <g id="Chevrons">
      <g id="Chevron_1" data-name="Chevron 1">
        <path class="cls-4" d="M568.9,48.4,549.5,22.7h14.9l19.5,25.7-19.5,25.6h-14.9s19.5-25.6,19.5-25.6l-19.5-25.7h14.9l19.5,25.7M583.8,48.4,564.3,74h-14.9s19.5-25.6,19.5-25.6"/>
      </g>
      <g id="Chevron_2" data-name="Chevron 2">
        <path class="cls-4" d="M589.1,48.4,569.6,22.7h14.9l19.5,25.7-19.5,25.6h-14.9s19.5-25.6,19.5-25.6l-19.5-25.7h14.9l19.5,25.7M604,48.4,584.5,74h-14.9s19.5-25.6,19.5-25.6"/>
      </g>
      <g id="Chevron_3" data-name="Chevron 3">
        <path class="cls-4" d="M609.2,48.4,589.8,22.7h14.9l19.5,25.7-19.5,25.6h-14.9s19.5-25.6,19.5-25.6l-19.5-25.7h14.9l19.5,25.7M624.1,48.4,604.7,74h-14.9s19.5-25.6,19.5-25.6"/>
      </g>
      <g id="Chevron_4" data-name="Chevron 4">
        <path class="cls-4" d="M629.4,48.4,610,22.7h14.9l19.5,25.7-19.5,25.6h-14.9s19.5-25.6,19.5-25.6l-19.5-25.7h14.9l19.5,25.7M644.3,48.4,624.9,74h-14.9s19.5-25.6,19.5-25.6"/>
      </g>
      <g id="Chevron_5" data-name="Chevron 5">
        <path class="cls-4" d="M649.6,48.4,630.1,22.7h14.9l19.5,25.7-19.5,25.6h-14.9s19.5-25.6,19.5-25.6l-19.5-25.7h14.9l19.5,25.7M664.5,48.4,645,74h-14.9s19.5-25.6,19.5-25.6"/>
      </g>
      <g id="Chevron_6" data-name="Chevron 6">
        <path class="cls-4" d="M669.8,48.4,650.3,22.7h14.9l19.5,25.7-19.5,25.6h-14.9s19.5-25.6,19.5-25.6l-19.5-25.7h14.9l19.5,25.7M684.6,48.4,665.2,74h-14.9s19.5-25.6,19.5-25.6"/>
      </g>
    </g>
    <g id="Road_to_DX_Text" data-name="Road to DX Text">
      <path class="cls-1" d="M549.4,63.9v-31.1h6.1c2.3,0,4,.5,5,1.5,1,1,1.6,2.6,1.7,4.8,0,.9,0,1.8,0,2.6,0,.8,0,1.6,0,2.3,0,.8,0,1.6,0,2.4,0,1.5-.3,2.7-.8,3.6-.5.9-1.2,1.6-2.1,2l3.4,11.9h-4.5l-2.9-11.2h-1.8v11.2h-4.2ZM553.6,49h1.9c.8,0,1.5-.2,1.9-.6.4-.4.6-1,.7-1.8,0-.8,0-1.7,0-2.6,0-.9,0-1.8,0-2.6,0-.9,0-1.7,0-2.6,0-.8-.3-1.4-.7-1.8-.4-.4-1-.6-1.9-.6h-1.9v12.5Z"/>
      <path class="cls-1" d="M571.5,64.2c-2.3,0-4-.5-5-1.5-1-1-1.6-2.6-1.6-5,0-1.6,0-3.1,0-4.7,0-1.6,0-3.2,0-4.8s0-3.2,0-4.7c0-1.6,0-3.1,0-4.7,0-2.3.6-3.9,1.6-4.9,1-1,2.7-1.5,5-1.5s4,.5,5,1.5c1,1,1.5,2.6,1.6,4.9,0,1.6,0,3.2,0,4.7,0,1.6,0,3.2,0,4.7s0,3.2,0,4.7c0,1.6,0,3.2,0,4.7,0,2.3-.6,4-1.6,5-1,1-2.7,1.5-5,1.5ZM571.5,60.7c.8,0,1.5-.2,1.8-.5.4-.4.6-.9.6-1.7,0-1.6,0-3.3.1-5,0-1.7,0-3.5,0-5.2s0-3.5,0-5.2c0-1.7,0-3.4,0-4.9,0-.8-.2-1.3-.6-1.7-.4-.4-1-.5-1.8-.5s-1.4.2-1.8.5c-.4.4-.6.9-.6,1.7,0,1.6,0,3.2-.1,4.9,0,1.7,0,3.5,0,5.2s0,3.5,0,5.2c0,1.7,0,3.4.1,5,0,.8.2,1.3.6,1.7.4.4,1,.5,1.8.5Z"/>
      <path class="cls-1" d="M579.6,63.9l3.8-31.1h7l3.8,31.1h-4.3l-.7-7.8h-4.6l-.7,7.8h-4.3ZM585,52.4h3.7l-.6-6.8-.7-9h-1.1l-.7,9.1-.7,6.8Z"/>
      <path class="cls-1" d="M596.1,63.9v-31.1h6.4c2.4,0,4.1.5,5.1,1.5,1,1,1.6,2.7,1.6,5,0,2.1,0,4.2,0,6.1,0,1.9,0,3.8,0,5.8,0,1.9,0,3.9,0,6.1,0,2.4-.6,4.1-1.7,5.1-1.1,1-2.8,1.5-5.1,1.5h-6.4ZM600.3,60.1h2.2c.9,0,1.5-.2,1.9-.6.4-.4.6-1,.6-1.8,0-1.6,0-3.2,0-4.7,0-1.6,0-3.1,0-4.7s0-3.2,0-4.7c0-1.6,0-3.2,0-4.7,0-.8-.2-1.4-.6-1.8-.4-.4-1-.6-1.9-.6h-2.2v23.7Z"/>
      <path class="cls-1" d="M622.4,63.9v-27.4h-4.5v-3.7h13.2v3.7h-4.5v27.4h-4.2Z"/>
      <path class="cls-1" d="M638.7,64.2c-2.3,0-4-.5-5-1.5-1-1-1.6-2.6-1.6-5,0-1.6,0-3.1,0-4.7,0-1.6,0-3.2,0-4.8s0-3.2,0-4.7c0-1.6,0-3.1,0-4.7,0-2.3.6-3.9,1.6-4.9,1-1,2.7-1.5,5-1.5s4,.5,5,1.5c1,1,1.5,2.6,1.6,4.9,0,1.6,0,3.2,0,4.7,0,1.6,0,3.2,0,4.7s0,3.2,0,4.7c0,1.6,0,3.2,0,4.7,0,2.3-.6,4-1.6,5-1,1-2.7,1.5-5,1.5ZM638.7,60.7c.8,0,1.5-.2,1.8-.5.4-.4.6-.9.6-1.7,0-1.6,0-3.3.1-5,0-1.7,0-3.5,0-5.2s0-3.5,0-5.2c0-1.7,0-3.4,0-4.9,0-.8-.2-1.3-.6-1.7-.4-.4-1-.5-1.8-.5s-1.4.2-1.8.5c-.4.4-.6.9-.6,1.7,0,1.6,0,3.2-.1,4.9,0,1.7,0,3.5,0,5.2s0,3.5,0,5.2c0,1.7,0,3.4.1,5,0,.8.2,1.3.6,1.7.4.4,1,.5,1.8.5Z"/>
      <path class="cls-1" d="M656.1,63.9v-31.1h6.4c2.4,0,4.1.5,5.1,1.5,1,1,1.6,2.7,1.6,5,0,2.1,0,4.2,0,6.1,0,1.9,0,3.8,0,5.8,0,1.9,0,3.9,0,6.1,0,2.4-.6,4.1-1.7,5.1-1.1,1-2.8,1.5-5.1,1.5h-6.4ZM660.3,60.1h2.2c.9,0,1.5-.2,1.9-.6.4-.4.6-1,.6-1.8,0-1.6,0-3.2,0-4.7,0-1.6,0-3.1,0-4.7s0-3.2,0-4.7c0-1.6,0-3.2,0-4.7,0-.8-.2-1.4-.6-1.8-.4-.4-1-.6-1.9-.6h-2.2v23.7Z"/>
      <path class="cls-1" d="M670.3,63.9l4.2-16-4-15.1h4.1l1.7,7.3.8,6.1h.8l.8-6.1,1.7-7.3h4.1l-3.9,15.2,4,15.9h-4.1l-1.8-7.7-.8-6.3h-.8l-.8,6.3-1.8,7.7h-4.1Z"/>
    </g>
  </g>
  <g>
    <g>
      <path class="cls-3" d="M130.6,34.7c-7.2,0-13.1,6.1-13.1,13.6s5.9,13.6,13.1,13.6,13.1-6.1,13.1-13.6-5.9-13.6-13.1-13.6ZM130.6,58.1c-3.1,0-8-2.3-8-9.8s4.9-9.9,8-9.9,8,2.4,8,9.9-4.9,9.8-8,9.8Z"/>
      <path class="cls-3" d="M331.9,34.7c-7.2,0-13.1,6.1-13.1,13.6s5.9,13.6,13.1,13.6,13.1-6.1,13.1-13.6-5.9-13.6-13.1-13.6ZM331.9,58.1c-3.1,0-8-2.3-8-9.8s4.9-9.9,8-9.9,8,2.4,8,9.9-4.9,9.8-8,9.8Z"/>
      <rect class="cls-3" x="92.7" y="35.4" width="4.7" height="26"/>
      <rect class="cls-3" x="177.1" y="35.4" width="4.7" height="26"/>
      <rect class="cls-3" x="280.8" y="35.4" width="4.7" height="26"/>
      <path class="cls-3" d="M203.4,38.8h2.1l.2-3.4c-1-.1-1.8-.2-2.9-.2-10,0-16.5,5.4-16.5,13s6.5,13,16.5,13,1.8,0,2.9-.2l-.2-3.4h-2.1c-7.1,0-11.8-3.7-11.8-9.5s4.7-9.5,11.8-9.5Z"/>
      <path class="cls-3" d="M166.4,50.9c0,0,0,0,0,0-3.4-6.4-10.8-13-15.3-15.5h-3.2v26h4.4s-.2-20-.2-20.1c0,0,0,0,0,0,5.6,3.9,11.7,11.3,14.9,20.1h3.7v-26h-4.5s.2,15.5.2,15.5Z"/>
      <path class="cls-3" d="M310.3,50.9c0,0,0,0,0,0-3.4-6.4-10.8-13-15.3-15.5h-3.2v26h4.4s-.2-20-.2-20.1c0,0,0,0,0,0,5.6,3.9,11.7,11.3,14.9,20.1h3.7v-26h-4.5s.2,15.5.2,15.5Z"/>
      <path class="cls-3" d="M207.2,61.3h4.5s7-16.6,7.3-17.1c.3.6,8.6,17.1,8.6,17.1h5.3l-13.9-26.5-11.8,26.5Z"/>
      <path class="cls-3" d="M388.6,34.8l-11.8,26.5h4.5s7-16.6,7.3-17.1c.3.6,8.6,17.1,8.6,17.1h5.3l-13.9-26.5Z"/>
      <path class="cls-3" d="M105.8,45.9c2.7-2.8,10.2-10.6,10.2-10.6h-5.7l-10.8,11.4c5.2,3.4,9.5,8.1,12.2,14.6h5c-2-6.1-6-11.8-10.8-15.4Z"/>
      <polygon class="cls-3" points="353.8 35.4 349.1 35.4 349.1 61.3 364.1 61.3 364.1 57.7 353.8 57.7 353.8 35.4"/>
      <polygon class="cls-3" points="379.8 35.4 361.9 35.4 361.9 39 368.5 39 368.5 61.3 373.2 61.3 373.2 39 379.8 39 379.8 35.4"/>
      <path class="cls-3" d="M261.6,48.1c-.5.9-1.1,2.6-1.6,3.8,0,0,0,0,0,0-.4-1.2-1.1-2.9-1.6-3.8-2.3-4.7-5.8-11.2-8-13.4-1.3,2.3-6.2,22.3-7.2,26.6h4.7s3.7-17,3.7-17.1c0,0,0,0,0,0,1.6,2.5,4.8,8.9,6.7,14.8h3.1c1.8-5.5,5-12.3,6.6-14.8,0,0,0,0,0,0,0,0,3.8,17.1,3.8,17.1h4.7c-1-4.3-6-24.3-7.2-26.6-2.2,2.2-5.7,8.7-7.9,13.4Z"/>
    </g>
    <g>
      <g>
        <path class="cls-5" d="M18.2,41.4c0-.2.2-.3.4-.3,3.7.2,28.5,1.6,28.5,1.6,0,0,24.8-1.4,28.5-1.6.2,0,.3,0,.4.3-.2-.6-.4-1.1-.6-1.7.1.3,0,.5-.4.5-.6,0-13.5.2-13.5.2h-28.9s-12.9-.2-13.5-.2c-.3,0-.5-.2-.4-.5-.2.6-.4,1.1-.6,1.7Z"/>
        <path class="cls-5" d="M17.5,49c3.6,0,20.8.8,29.6.8,8.8,0,26-.7,29.6-.8.2,0,.4.1.4.3,0-.3,0-.6,0-.9s0-.6,0-.9c0,.2-.1.3-.4.3-3.6,0-20.8-.8-29.6-.8-8.8,0-26,.7-29.6.8-.2,0-.4-.1-.4-.3,0,.3,0,.6,0,.9s0,.6,0,.9c0-.2.1-.3.4-.3Z"/>
        <path class="cls-5" d="M17.3,45.3c0-.3.3-.4.5-.4.3,0,20.3,1.2,29.2,1.2,9,0,29-1.2,29.2-1.2.3,0,.5.1.5.4,0-.6-.2-1.3-.3-1.9,0,.2-.2.4-.4.4-3.7,0-23.1-.5-29-.5s-25.3.4-29,.5c-.2,0-.4-.2-.4-.4-.1.6-.2,1.2-.3,1.9Z"/>
        <path class="cls-5" d="M76.9,51.3c0,.3-.3.4-.5.4-.3,0-20.3-1.2-29.2-1.2-9,0-29,1.2-29.2,1.2-.3,0-.5-.1-.5-.4,0,.6.2,1.3.3,1.9,0-.3.2-.4.4-.4,3.7,0,23.1.5,29,.5s25.3-.4,29-.5c.2,0,.4.2.4.4.1-.6.2-1.2.3-1.9Z"/>
        <path class="cls-5" d="M76,55.3c0,.2-.2.3-.4.3-3.7-.2-28.5-1.6-28.5-1.6,0,0-24.8,1.4-28.5,1.6-.2,0-.3,0-.4-.3.2.6.4,1.1.6,1.7,0-.3,0-.5.4-.5.6,0,13.5-.2,13.5-.2h28.9s12.9.2,13.5.2c.3,0,.5.2.4.5.2-.6.4-1.1.6-1.7Z"/>
      </g>
      <g>
        <path class="cls-2" d="M47.1,22.4c13.1,0,24.2,7.3,28.3,17.3.1.3,0,.5-.3.5-.6,0-13.5.2-13.5.2h-28.9s-12.9-.2-13.5-.2c-.3,0-.5-.2-.3-.5,4.1-10,15.2-17.3,28.3-17.3"/>
        <path class="cls-2" d="M47.1,43.4c6,0,25.3.4,29,.5.3,0,.5-.2.4-.5,0-.3-.4-1.7-.5-1.9,0-.2-.2-.3-.4-.3-3.7.2-28.5,1.6-28.5,1.6h0s-24.8-1.4-28.5-1.6c-.2,0-.4.1-.4.3,0,.3-.5,1.6-.5,1.9,0,.3.2.5.4.5,3.7,0,23.1-.5,29-.5h0Z"/>
        <path class="cls-2" d="M47.1,47c8.8,0,26,.7,29.6.8.3,0,.4-.1.4-.4,0-.4-.1-1.7-.2-2,0-.3-.3-.5-.6-.5-.3,0-20.3,1.2-29.2,1.2-9,0-29-1.2-29.2-1.2-.3,0-.5.2-.6.5,0,.3-.2,1.6-.2,2,0,.2.1.4.4.4,3.6,0,20.8-.8,29.6-.8Z"/>
        <path class="cls-2" d="M47.1,74.3c13.1,0,24.2-7.3,28.3-17.3.1-.3,0-.5-.3-.5-.6,0-13.5-.2-13.5-.2h-28.9s-12.9.2-13.5.2c-.3,0-.5.2-.3.5,4.1,10,15.2,17.3,28.3,17.3"/>
        <path class="cls-2" d="M47.1,53.3c6,0,25.3-.4,29-.5.3,0,.5.2.4.5,0,.3-.4,1.7-.5,1.9,0,.2-.2.3-.4.3-3.7-.2-28.5-1.6-28.5-1.6h0s-24.8,1.4-28.5,1.6c-.2,0-.4,0-.4-.3,0-.3-.5-1.6-.5-1.9,0-.3.2-.5.4-.5,3.7,0,23.1.5,29,.5h0Z"/>
        <path class="cls-2" d="M47.1,49.7c8.8,0,26-.7,29.6-.8.3,0,.4.1.4.4,0,.4-.1,1.7-.2,2,0,.3-.3.5-.6.5-.3,0-20.3-1.2-29.2-1.2-9,0-29,1.2-29.2,1.2-.3,0-.5-.2-.6-.5,0-.3-.2-1.6-.2-2,0-.2.1-.4.4-.4,3.6,0,20.8.8,29.6.8Z"/>
      </g>
    </g>
  </g>
  <line class="cls-6" x1="476.5" y1="22.4" x2="476.5" y2="74.4"/>
</svg>