<?xml version="1.0" encoding="UTF-8"?>
<svg id="Layer_1" data-name="Layer 1" xmlns="http://www.w3.org/2000/svg" version="1.1" viewBox="0 0 493.7 118.1">
  <defs>
    <style>
      .cls-1, .cls-2, .cls-3, .cls-4, .cls-5 {
        stroke-width: 0px;
      }

      .cls-1, .cls-6 {
        fill: #010101;
      }

      .cls-2 {
        fill: #007dc5;
      }

      .cls-3 {
        fill: #231f20;
      }

      .cls-4 {
        fill: #e5e5e5;
      }

      .cls-6 {
        stroke: #010101;
        stroke-miterlimit: 10;
        stroke-width: 3px;
      }

      .cls-5 {
        fill: #fff;
      }
    </style>
  </defs>
  <g>
    <g id="Bottom_Line" data-name="Bottom Line">
      <rect id="Bottom_Line-2" data-name="Bottom Line" class="cls-1" x="298.8" y="98.4" width="180.7" height="3.8"/>
    </g>
    <g id="Top_Line" data-name="Top Line">
      <rect id="Top_Line-2" data-name="Top Line" class="cls-1" x="298.8" y="16.5" width="180.7" height="3.8"/>
    </g>
    <g id="Chevrons">
      <g id="Chevron_1" data-name="Chevron 1">
        <path class="cls-4" d="M324.8,59.4,298.8,25h19.9l26,34.4-26,34.3h-19.9s26-34.3,26-34.3l-26-34.4h19.9l26,34.4M344.8,59.4,318.7,93.7h-19.9s26-34.3,26-34.3"/>
      </g>
      <g id="Chevron_2" data-name="Chevron 2">
        <path class="cls-4" d="M351.8,59.4,325.8,25h19.9l26,34.4-26,34.3h-19.9s26-34.3,26-34.3l-26-34.4h19.9l26,34.4M371.8,59.4,345.7,93.7h-19.9s26-34.3,26-34.3"/>
      </g>
      <g id="Chevron_3" data-name="Chevron 3">
        <path class="cls-4" d="M378.8,59.4,352.8,25h19.9l26,34.4-26,34.3h-19.9s26-34.3,26-34.3l-26-34.4h19.9l26,34.4M398.8,59.4,372.7,93.7h-19.9s26-34.3,26-34.3"/>
      </g>
      <g id="Chevron_4" data-name="Chevron 4">
        <path class="cls-4" d="M405.8,59.4,379.8,25h19.9l26,34.4-26,34.3h-19.9s26-34.3,26-34.3l-26-34.4h19.9l26,34.4M425.8,59.4,399.7,93.7h-19.9s26-34.3,26-34.3"/>
      </g>
      <g id="Chevron_5" data-name="Chevron 5">
        <path class="cls-4" d="M432.8,59.4,406.8,25h19.9l26,34.4-26,34.3h-19.9s26-34.3,26-34.3l-26-34.4h19.9l26,34.4M452.8,59.4,426.7,93.7h-19.9s26-34.3,26-34.3"/>
      </g>
      <g id="Chevron_6" data-name="Chevron 6">
        <path class="cls-4" d="M459.8,59.4,433.8,25h19.9l26,34.4-26,34.3h-19.9s26-34.3,26-34.3l-26-34.4h19.9l26,34.4M479.8,59.4,453.7,93.7h-19.9s26-34.3,26-34.3"/>
      </g>
    </g>
    <g id="Road_to_DX_Text" data-name="Road to DX Text">
      <path class="cls-1" d="M298.8,80.1v-41.7h8.2c3.1,0,5.4.7,6.8,2,1.4,1.3,2.1,3.5,2.3,6.5,0,1.3,0,2.4.1,3.5,0,1.1,0,2.1,0,3.1,0,1,0,2.1-.1,3.2,0,2-.4,3.6-1,4.8-.6,1.2-1.6,2.1-2.8,2.7l4.6,15.9h-6l-3.9-15h-2.4v15h-5.6ZM304.4,60.2h2.6c1.1,0,2-.3,2.5-.8.5-.5.8-1.3.9-2.4,0-1.1,0-2.3.1-3.4,0-1.2,0-2.3,0-3.5,0-1.2,0-2.3-.1-3.4,0-1.1-.4-1.8-.9-2.4-.5-.5-1.4-.8-2.5-.8h-2.6v16.7Z"/>
      <path class="cls-1" d="M328.2,80.6c-3.1,0-5.4-.7-6.7-2-1.4-1.3-2.1-3.5-2.2-6.6,0-2.1,0-4.2,0-6.3,0-2.1,0-4.2,0-6.4s0-4.2,0-6.4c0-2.1,0-4.2,0-6.3,0-3.1.8-5.3,2.2-6.6,1.4-1.3,3.6-2,6.7-2s5.4.7,6.7,2c1.4,1.3,2.1,3.5,2.2,6.6,0,2.1,0,4.2.1,6.4,0,2.1,0,4.2,0,6.3s0,4.2,0,6.3c0,2.1,0,4.2-.1,6.3,0,3.1-.8,5.3-2.2,6.6-1.4,1.3-3.6,2-6.7,2ZM328.2,75.9c1.1,0,2-.2,2.5-.7.5-.5.8-1.2.8-2.3,0-2.2.1-4.4.1-6.7,0-2.3,0-4.7,0-7s0-4.7,0-7c0-2.3,0-4.5-.1-6.6,0-1-.3-1.8-.8-2.2-.5-.5-1.4-.7-2.4-.7s-1.9.2-2.4.7c-.5.5-.8,1.2-.9,2.2,0,2.1-.1,4.3-.2,6.6,0,2.3,0,4.6,0,7s0,4.7,0,7c0,2.3,0,4.6.2,6.7,0,1,.3,1.8.9,2.3.5.5,1.3.7,2.4.7Z"/>
      <path class="cls-1" d="M339.1,80.1l5.1-41.7h9.4l5.1,41.7h-5.8l-1-10.4h-6.1l-1,10.4h-5.8ZM346.4,64.7h5l-.9-9.1-.9-12.1h-1.5l-.9,12.1-.9,9.1Z"/>
      <path class="cls-1" d="M361.2,80.1v-41.7h8.6c3.2,0,5.4.7,6.8,2,1.4,1.4,2.1,3.6,2.2,6.8,0,2.9,0,5.6.1,8.2,0,2.6,0,5.2,0,7.7,0,2.6,0,5.3-.1,8.1,0,3.2-.8,5.4-2.2,6.8-1.4,1.4-3.7,2.1-6.8,2.1h-8.6ZM366.8,75.1h3c1.1,0,2-.3,2.6-.8.6-.5.8-1.3.9-2.4,0-2.1,0-4.2.1-6.3,0-2.1,0-4.2,0-6.3s0-4.2,0-6.3c0-2.1,0-4.2-.1-6.3,0-1.1-.3-1.8-.9-2.4-.6-.5-1.4-.8-2.5-.8h-3v31.7Z"/>
      <path class="cls-1" d="M396.5,80.1v-36.7h-6v-5h17.6v5h-6v36.7h-5.6Z"/>
      <path class="cls-1" d="M418.3,80.6c-3.1,0-5.4-.7-6.7-2-1.4-1.3-2.1-3.5-2.2-6.6,0-2.1,0-4.2,0-6.3,0-2.1,0-4.2,0-6.4s0-4.2,0-6.4c0-2.1,0-4.2,0-6.3,0-3.1.8-5.3,2.2-6.6,1.4-1.3,3.6-2,6.7-2s5.4.7,6.7,2c1.4,1.3,2.1,3.5,2.2,6.6,0,2.1,0,4.2.1,6.4,0,2.1,0,4.2,0,6.3s0,4.2,0,6.3c0,2.1,0,4.2-.1,6.3,0,3.1-.8,5.3-2.2,6.6-1.4,1.3-3.6,2-6.7,2ZM418.3,75.9c1.1,0,2-.2,2.5-.7.5-.5.8-1.2.8-2.3,0-2.2.1-4.4.1-6.7,0-2.3,0-4.7,0-7s0-4.7,0-7c0-2.3,0-4.5-.1-6.6,0-1-.3-1.8-.8-2.2-.5-.5-1.4-.7-2.4-.7s-1.9.2-2.4.7c-.5.5-.8,1.2-.9,2.2,0,2.1-.1,4.3-.2,6.6,0,2.3,0,4.6,0,7s0,4.7,0,7c0,2.3,0,4.6.2,6.7,0,1,.3,1.8.9,2.3.5.5,1.3.7,2.4.7Z"/>
      <path class="cls-1" d="M441.5,80.1v-41.7h8.6c3.2,0,5.4.7,6.8,2,1.4,1.4,2.1,3.6,2.2,6.8,0,2.9,0,5.6.1,8.2,0,2.6,0,5.2,0,7.7,0,2.6,0,5.3-.1,8.1,0,3.2-.8,5.4-2.2,6.8-1.4,1.4-3.7,2.1-6.8,2.1h-8.6ZM447.2,75.1h3c1.1,0,2-.3,2.6-.8.6-.5.8-1.3.9-2.4,0-2.1,0-4.2.1-6.3,0-2.1,0-4.2,0-6.3s0-4.2,0-6.3c0-2.1,0-4.2-.1-6.3,0-1.1-.3-1.8-.9-2.4-.6-.5-1.4-.8-2.5-.8h-3v31.7Z"/>
      <path class="cls-1" d="M460.6,80.1l5.6-21.5-5.4-20.2h5.5l2.3,9.8,1.1,8.2h1l1-8.2,2.2-9.8h5.5l-5.2,20.4,5.4,21.3h-5.5l-2.4-10.3-1.1-8.4h-1l-1.1,8.4-2.4,10.3h-5.5Z"/>
    </g>
  </g>
  <g>
    <g>
      <g>
        <path class="cls-5" d="M50.7,49.1c3.9.1,22.7.9,32.3.8,9.6,0,28.4-.7,32.3-.8.3,0,.4.1.4.3,0-.3,0-.7,0-1s0-.7,0-1c0,.2-.1.3-.4.3-3.9-.1-22.7-.9-32.3-.8-9.6,0-28.4.7-32.3.8-.3,0-.4-.1-.4-.3,0,.3,0,.6,0,1s0,.6,0,1c0-.2.2-.3.4-.3Z"/>
        <path class="cls-5" d="M50.5,45.2c0-.3.3-.4.6-.4.3,0,22.1,1.3,31.9,1.3,9.8,0,31.6-1.3,31.9-1.3.3,0,.5.1.6.5,0-.7-.2-1.4-.4-2.1,0,.3-.2.4-.5.4-4.1,0-25.2-.5-31.7-.5h0c-6.5,0-27.6.5-31.7.5-.3,0-.5-.2-.5-.5-.1.7-.3,1.4-.4,2Z"/>
        <path class="cls-5" d="M51.4,40.9c0-.2.2-.3.5-.3,4,.2,31.1,1.7,31.1,1.7h0s27.1-1.5,31.1-1.7c.2,0,.4,0,.5.3-.2-.6-.4-1.2-.7-1.8.1.3,0,.5-.4.5-.7,0-14.7.2-14.7.2h-31.5s-14-.2-14.7-.2c-.3,0-.5-.2-.4-.5-.2.6-.5,1.2-.7,1.9Z"/>
        <path class="cls-5" d="M114.5,56c0,.2-.2.3-.5.3-4-.2-31.1-1.7-31.1-1.7h0s-27,1.5-31.1,1.7c-.2,0-.4,0-.5-.3.2.6.4,1.2.7,1.9-.1-.3,0-.5.4-.5.7,0,14.7-.2,14.7-.2h31.5s14,.2,14.7.2c.3,0,.5.2.4.5.2-.6.5-1.2.7-1.8Z"/>
        <path class="cls-5" d="M115.5,51.7c0,.3-.3.5-.6.5-.3,0-22.2-1.3-31.9-1.3-9.8,0-31.6,1.3-31.9,1.3-.3,0-.5-.1-.6-.4,0,.7.2,1.4.4,2,0-.3.2-.5.5-.5,4.1,0,25.2.5,31.7.5h0c6.5,0,27.6-.5,31.7-.5.3,0,.5.2.5.4.1-.7.3-1.4.4-2.1Z"/>
      </g>
      <g>
        <path class="cls-2" d="M83,20.1c14.3,0,26.4,7.9,30.9,18.9.1.3,0,.6-.4.6-.7,0-14.7.2-14.7.2h-31.5s-14-.2-14.7-.2c-.3,0-.5-.2-.4-.6,4.4-11,16.6-18.9,30.9-18.9"/>
        <path class="cls-2" d="M83,43c6.5,0,27.6.5,31.7.5.3,0,.5-.2.5-.5,0-.4-.5-1.8-.6-2.1,0-.3-.2-.4-.5-.4-4,.2-31.1,1.7-31.1,1.7h0s-27-1.5-31.1-1.7c-.3,0-.4.1-.5.4-.1.3-.5,1.7-.6,2.1,0,.3.2.5.5.5,4.1,0,25.2-.5,31.7-.5h0Z"/>
        <path class="cls-2" d="M83,47c9.6,0,28.4.7,32.3.8.3,0,.4-.1.4-.4,0-.5-.1-1.9-.2-2.2,0-.3-.3-.5-.6-.5-.3,0-22.2,1.3-31.9,1.3-9.8,0-31.6-1.3-31.9-1.3-.3,0-.6.2-.6.5,0,.3-.2,1.7-.2,2.2,0,.2.1.4.4.4,3.9-.1,22.7-.9,32.3-.8Z"/>
        <path class="cls-2" d="M83,76.8c14.3,0,26.4-7.9,30.9-18.9.1-.3,0-.6-.4-.6-.7,0-14.7-.2-14.7-.2h-31.5s-14,.2-14.7.2c-.3,0-.5.2-.4.6,4.4,11,16.6,18.9,30.9,18.9"/>
        <path class="cls-2" d="M83,53.9c6.5,0,27.6-.5,31.7-.5.3,0,.5.2.5.5,0,.4-.5,1.8-.6,2.1,0,.3-.2.4-.5.4-4-.2-31.1-1.7-31.1-1.7h0s-27,1.5-31.1,1.7c-.3,0-.4-.1-.5-.4-.1-.3-.5-1.7-.6-2.1,0-.3.2-.5.5-.5,4.1,0,25.2.5,31.7.5h0Z"/>
        <path class="cls-2" d="M83,49.9c9.6,0,28.4-.7,32.3-.8.3,0,.4.1.4.4,0,.5-.1,1.9-.2,2.2,0,.3-.3.5-.6.5-.3,0-22.2-1.3-31.9-1.3-9.8,0-31.6,1.3-31.9,1.3-.3,0-.6-.2-.6-.5,0-.3-.2-1.7-.2-2.2,0-.2.1-.4.4-.4,3.9.1,22.7.9,32.3.8Z"/>
      </g>
    </g>
    <g>
      <path class="cls-3" d="M32.8,86.7c-3.2,0-5.7,2.7-5.7,5.9s2.6,5.9,5.7,5.9,5.7-2.7,5.7-5.9-2.6-5.9-5.7-5.9ZM32.8,96.9c-1.4,0-3.5-1-3.5-4.3s2.1-4.3,3.5-4.3,3.5,1,3.5,4.3-2.1,4.3-3.5,4.3Z"/>
      <path class="cls-3" d="M120.7,86.7c-3.2,0-5.7,2.7-5.7,5.9s2.6,5.9,5.7,5.9,5.7-2.7,5.7-5.9-2.6-5.9-5.7-5.9ZM120.7,96.9c-1.4,0-3.5-1-3.5-4.3s2.1-4.3,3.5-4.3,3.5,1,3.5,4.3-2.1,4.3-3.5,4.3Z"/>
      <rect class="cls-3" x="16.3" y="87" width="2.1" height="11.3"/>
      <rect class="cls-3" x="53.1" y="87" width="2.1" height="11.3"/>
      <rect class="cls-3" x="98.4" y="87" width="2.1" height="11.3"/>
      <path class="cls-3" d="M64.6,88.5h.9v-1.5c-.3,0-.7,0-1.1,0-4.4,0-7.2,2.3-7.2,5.7s2.8,5.7,7.2,5.7.8,0,1.3,0v-1.5h-1c-3.1,0-5.2-1.6-5.2-4.2s2.1-4.1,5.2-4.1Z"/>
      <path class="cls-3" d="M48.4,93.8s0,0,0,0c-1.5-2.8-4.7-5.7-6.7-6.8h-1.4v11.3h1.9s0-8.7,0-8.8c0,0,0,0,0,0,2.4,1.7,5.1,4.9,6.5,8.8h1.6v-11.3h-1.9s0,6.8,0,6.8Z"/>
      <path class="cls-3" d="M111.3,93.8s0,0,0,0c-1.5-2.8-4.7-5.7-6.7-6.8h-1.4v11.3h1.9s0-8.7,0-8.8c0,0,0,0,0,0,2.5,1.7,5.1,4.9,6.5,8.8h1.6v-11.3h-1.9s0,6.8,0,6.8Z"/>
      <path class="cls-3" d="M66.2,98.3h2s3.1-7.2,3.2-7.5c.1.2,3.8,7.5,3.8,7.5h2.3l-6.1-11.6-5.2,11.6Z"/>
      <path class="cls-3" d="M145.5,86.8l-5.2,11.6h2s3.1-7.2,3.2-7.5c.1.2,3.8,7.5,3.8,7.5h2.3l-6.1-11.6Z"/>
      <path class="cls-3" d="M22,91.6c1.2-1.2,4.4-4.6,4.4-4.6h-2.5l-4.7,5c2.3,1.5,4.2,3.5,5.3,6.4h2.2c-.9-2.7-2.6-5.1-4.7-6.7Z"/>
      <polygon class="cls-3" points="130.3 87 128.2 87 128.2 98.3 134.8 98.3 134.8 96.8 130.3 96.8 130.3 87"/>
      <polygon class="cls-3" points="141.6 87 133.8 87 133.8 88.6 136.7 88.6 136.7 98.3 138.8 98.3 138.8 88.6 141.6 88.6 141.6 87"/>
      <path class="cls-3" d="M90,92.6c-.2.4-.5,1.1-.7,1.7,0,0,0,0,0,0-.2-.5-.5-1.3-.7-1.7-1-2.1-2.5-4.9-3.5-5.9-.5,1-2.7,9.7-3.2,11.6h2.1s1.6-7.4,1.6-7.5c0,0,0,0,0,0,.7,1.1,2.1,3.9,2.9,6.5h1.4c.8-2.4,2.2-5.4,2.9-6.5,0,0,0,0,0,0,0,0,1.7,7.5,1.7,7.5h2.1c-.5-1.9-2.6-10.6-3.2-11.6-1,1-2.5,3.8-3.5,5.8Z"/>
    </g>
  </g>
  <line class="cls-6" x1="225.3" y1="33.4" x2="225.3" y2="85.4"/>
</svg>