<?xml version="1.0" encoding="UTF-8"?>
<svg id="Layer_1" data-name="Layer 1" xmlns="http://www.w3.org/2000/svg" xmlns:xlink="http://www.w3.org/1999/xlink" version="1.1" viewBox="0 0 699 355.3">
  <defs>
    <style>
      .cls-1 {
        fill: url(#linear-gradient);
      }

      .cls-1, .cls-2, .cls-3, .cls-4, .cls-5, .cls-6, .cls-7, .cls-8, .cls-9, .cls-10 {
        stroke-width: 0px;
      }

      .cls-2 {
        fill: #010101;
      }

      .cls-11 {
        opacity: .2;
      }

      .cls-12 {
        opacity: .5;
      }

      .cls-3 {
        fill: url(#linear-gradient-4);
      }

      .cls-4 {
        fill: url(#linear-gradient-2);
      }

      .cls-5 {
        fill: url(#linear-gradient-3);
      }

      .cls-6 {
        fill: url(#linear-gradient-8);
      }

      .cls-7 {
        fill: url(#linear-gradient-7);
      }

      .cls-8 {
        fill: url(#linear-gradient-5);
      }

      .cls-9 {
        fill: url(#linear-gradient-6);
      }

      .cls-10 {
        fill: #e5e5e5;
      }
    </style>
    <linearGradient id="linear-gradient" x1="44.8" y1="319.4" x2="44.8" y2="162.5" gradientTransform="translate(0 416) scale(1 -1)" gradientUnits="userSpaceOnUse">
      <stop offset="0" stop-color="#fff"/>
      <stop offset="1" stop-color="#231f20"/>
    </linearGradient>
    <linearGradient id="linear-gradient-2" x1="122.2" y1="321" x2="122.2" y2="160.9" gradientTransform="translate(0 416) scale(1 -1)" gradientUnits="userSpaceOnUse">
      <stop offset="0" stop-color="#fff"/>
      <stop offset="1" stop-color="#231f20"/>
    </linearGradient>
    <linearGradient id="linear-gradient-3" x1="199.7" y1="319.4" x2="199.7" y2="162.6" gradientTransform="translate(0 416) scale(1 -1)" gradientUnits="userSpaceOnUse">
      <stop offset="0" stop-color="#fff"/>
      <stop offset="1" stop-color="#231f20"/>
    </linearGradient>
    <linearGradient id="linear-gradient-4" x1="279.4" y1="319.4" x2="279.4" y2="162.6" gradientTransform="translate(0 416) scale(1 -1)" gradientUnits="userSpaceOnUse">
      <stop offset="0" stop-color="#fff"/>
      <stop offset="1" stop-color="#231f20"/>
    </linearGradient>
    <linearGradient id="linear-gradient-5" x1="389.3" y1="319.4" x2="389.3" y2="162.6" gradientTransform="translate(0 416) scale(1 -1)" gradientUnits="userSpaceOnUse">
      <stop offset="0" stop-color="#fff"/>
      <stop offset="1" stop-color="#231f20"/>
    </linearGradient>
    <linearGradient id="linear-gradient-6" x1="460.9" y1="321" x2="460.9" y2="160.9" gradientTransform="translate(0 416) scale(1 -1)" gradientUnits="userSpaceOnUse">
      <stop offset="0" stop-color="#fff"/>
      <stop offset="1" stop-color="#231f20"/>
    </linearGradient>
    <linearGradient id="linear-gradient-7" x1="581.7" y1="319.4" x2="581.7" y2="162.6" gradientTransform="translate(0 416) scale(1 -1)" gradientUnits="userSpaceOnUse">
      <stop offset="0" stop-color="#fff"/>
      <stop offset="1" stop-color="#231f20"/>
    </linearGradient>
    <linearGradient id="linear-gradient-8" x1="655.8" y1="319.4" x2="655.8" y2="162.6" gradientTransform="translate(0 416) scale(1 -1)" gradientUnits="userSpaceOnUse">
      <stop offset="0" stop-color="#fff"/>
      <stop offset="1" stop-color="#231f20"/>
    </linearGradient>
  </defs>
  <rect class="cls-2" x="11.5" y="13.9" width="680" height="14.4"/>
  <rect class="cls-2" x="11.5" y="321.9" width="680" height="14.4"/>
  <g class="cls-12">
    <path class="cls-10" d="M109.5,175.4L11.5,45.9h75l98,129.5-98,129H11.5l98-129L11.5,45.9h75l98,129.5M184.5,175.4l-98,129H11.5l98-129"/>
    <path class="cls-10" d="M211.1,175.4L113.1,45.9h75l98,129.5-98,129h-75l98-129L113.1,45.9h75l98,129.5M286.1,175.4l-98,129h-75l98-129"/>
    <path class="cls-10" d="M312.7,175.4L214.7,45.9h75l98,129.5-98,129h-75l98-129L214.7,45.9h75l98,129.5M387.7,175.4l-98,129h-75l98-129"/>
    <path class="cls-10" d="M414.3,175.4l-98-129.5h75l98,129.5-98,129h-75l98-129-98-129.5h75l98,129.5M489.3,175.4l-98,129h-75l98-129"/>
    <path class="cls-10" d="M515.9,175.4l-98-129.5h75l98,129.5-98,129h-75l98-129-98-129.5h75l98,129.5M590.9,175.4l-98,129h-75l98-129"/>
    <path class="cls-10" d="M617.5,175.4l-98-129.5h75l98,129.5-98,129h-75l98-129-98-129.5h75l98,129.5M692.5,175.4l-98,129h-75l98-129"/>
  </g>
  <g>
    <path class="cls-2" d="M11.5,253.3V96.5h30.9c11.7,0,20.2,2.5,25.4,7.4,5.3,4.9,8.1,13.1,8.5,24.4.2,4.8.3,9.1.4,13.1v11.7c0,3.8-.2,7.9-.4,12.1-.3,7.4-1.5,13.4-3.8,18s-5.8,8-10.7,10.2l17.1,60h-22.5l-14.7-56.4h-9v56.4H11.5ZM32.6,178.1h9.6c4.2,0,7.4-1,9.5-3s3.2-5,3.4-9c.2-4.2.3-8.5.4-12.9v-13.2c0-4.4-.2-8.7-.4-12.9-.2-4-1.3-7-3.4-8.9-2.1-2-5.2-2.9-9.4-2.9h-9.7s0,62.8,0,62.8Z"/>
    <path class="cls-2" d="M122.4,254.9c-11.7,0-20.2-2.5-25.4-7.5s-8-13.3-8.2-24.9c0-7.8-.2-15.7-.3-23.7v-47.9c0-7.9.2-15.9.3-23.8.3-11.6,3-19.8,8.2-24.8s13.7-7.5,25.4-7.5,20.3,2.5,25.4,7.5,7.8,13.3,8.1,24.8c.2,8,.3,15.9.4,23.9,0,8,.1,15.9.1,23.9s0,15.9-.1,23.9c0,8-.2,15.9-.4,23.7-.3,11.6-3,19.9-8.1,24.9s-13.6,7.5-25.4,7.5h0ZM122.4,237.4c4.2,0,7.4-.9,9.3-2.7,2-1.8,3-4.6,3-8.5.3-8.1.4-16.5.5-25.2,0-8.7.1-17.5.1-26.4s0-17.6-.2-26.3c-.1-8.6-.3-16.9-.5-24.9,0-3.9-1.1-6.7-3.1-8.4-2-1.8-5.1-2.6-9.2-2.6s-7.1.9-9.1,2.6c-2,1.8-3.1,4.6-3.2,8.4-.3,8-.5,16.3-.6,24.9s-.2,17.4-.2,26.3,0,17.7.2,26.4c0,8.7.3,17.1.6,25.2,0,3.9,1.2,6.7,3.2,8.5s5.1,2.7,9.1,2.7h0Z"/>
    <path class="cls-2" d="M163.2,253.3l19.2-156.8h35.3l19.2,156.8h-21.7l-3.7-39.1h-22.9l-3.6,39.1h-21.8ZM190.6,195.2h18.8l-3.2-34.4-3.4-45.6h-5.5l-3.3,45.7-3.3,34.3h-.1Z"/>
    <path class="cls-2" d="M246.4,253.3V96.5h32.4c11.9,0,20.5,2.6,25.7,7.7,5.3,5.1,8,13.6,8.3,25.4.2,10.8.3,21,.4,30.7v29.1c0,9.7-.2,19.9-.4,30.6-.3,11.9-3,20.4-8.3,25.6-5.3,5.2-13.9,7.7-25.8,7.7h-32.3ZM267.5,234.4h11.2c4.3,0,7.5-1,9.6-3s3.2-5,3.2-9.1c.2-8,.3-15.9.4-23.8v-47.6c0-7.9-.2-15.9-.4-23.9,0-4-1.1-7-3.2-8.9-2.1-2-5.3-2.9-9.5-2.9h-11.3v119.2h0Z"/>
    <path class="cls-2" d="M379.2,253.3V115.3h-22.6v-18.8h66.3v18.8h-22.5v138h-21.2Z"/>
    <path class="cls-2" d="M461.3,254.9c-11.7,0-20.2-2.5-25.4-7.5-5.2-5-8-13.3-8.2-24.9-.1-7.8-.2-15.7-.3-23.7v-47.9c0-7.9.2-15.9.3-23.8.3-11.6,3-19.8,8.2-24.8s13.7-7.5,25.4-7.5,20.3,2.5,25.4,7.5,7.8,13.3,8.1,24.8c.2,8,.3,15.9.4,23.9,0,8,.1,15.9.1,23.9s0,15.9-.1,23.9c0,8-.2,15.9-.4,23.7-.3,11.6-3,19.9-8.1,24.9s-13.6,7.5-25.4,7.5h0ZM461.3,237.4c4.2,0,7.4-.9,9.3-2.7,2-1.8,3-4.6,3-8.5.3-8.1.4-16.5.5-25.2,0-8.7.1-17.5.1-26.4s0-17.6-.2-26.3c-.1-8.6-.3-16.9-.5-24.9,0-3.9-1.1-6.7-3.1-8.4-2-1.8-5.1-2.6-9.2-2.6s-7.1.9-9.1,2.6c-2,1.8-3.1,4.6-3.2,8.4-.3,8-.5,16.3-.6,24.9s-.2,17.4-.2,26.3,0,17.7.2,26.4c.1,8.7.3,17.1.6,25.2.1,3.9,1.2,6.7,3.2,8.5s5.1,2.7,9.1,2.7h.1Z"/>
    <path class="cls-2" d="M548.7,253.3V96.5h32.4c11.9,0,20.5,2.6,25.7,7.7,5.3,5.1,8,13.6,8.3,25.4.2,10.8.3,21,.4,30.7v29.1c0,9.7-.2,19.9-.4,30.6-.3,11.9-3,20.4-8.3,25.6-5.3,5.2-13.9,7.7-25.8,7.7h-32.3ZM569.9,234.4h11.2c4.3,0,7.5-1,9.6-3s3.2-5,3.2-9.1c.2-8,.3-15.9.4-23.8v-47.6c0-7.9-.2-15.9-.4-23.9,0-4-1.1-7-3.2-8.9-2.1-2-5.3-2.9-9.5-2.9h-11.3v119.2h0Z"/>
    <path class="cls-2" d="M620.3,253.3l21.2-80.8-20.4-76h20.8l8.5,36.8,4,30.7h3.9l3.8-30.7,8.3-36.8h20.8l-19.6,76.7,20.3,80.1h-20.7l-8.9-38.7-4-31.8h-3.9l-4.1,31.8-9.2,38.7h-20.8,0Z"/>
  </g>
  <g id="Road_to_DX_Text" data-name="Road to DX Text" class="cls-11">
    <path class="cls-1" d="M11.1,253.4V96.6h30.9c11.7,0,20.2,2.5,25.4,7.4,5.3,4.9,8.1,13.1,8.5,24.4.2,4.8.3,9.1.4,13.1v11.7c0,3.8-.2,7.9-.4,12.1-.3,7.4-1.5,13.4-3.8,18s-5.8,8-10.7,10.2l17.1,60h-22.5l-14.7-56.4h-9v56.4H11.1ZM32.3,178.3h9.6c4.2,0,7.4-1,9.5-3s3.2-5,3.4-9c.2-4.2.3-8.5.4-12.9v-13.2c0-4.4-.2-8.7-.4-12.9-.2-4-1.3-7-3.4-8.9-2.1-2-5.2-2.9-9.4-2.9h-9.7v62.8Z"/>
    <path class="cls-4" d="M122.1,255.1c-11.7,0-20.2-2.5-25.4-7.5s-8-13.3-8.2-24.9c0-7.8-.2-15.7-.3-23.7v-47.9c0-7.9.2-15.9.3-23.8.3-11.6,3-19.8,8.2-24.8s13.7-7.5,25.4-7.5,20.3,2.5,25.4,7.5,7.8,13.3,8.1,24.8c.2,8,.3,15.9.4,23.9,0,8,.1,15.9.1,23.9s0,15.9-.1,23.9c0,8-.2,15.9-.4,23.7-.3,11.6-3,19.9-8.1,24.9s-13.6,7.5-25.4,7.5h0ZM122.1,237.5c4.2,0,7.4-.9,9.3-2.7,2-1.8,3-4.6,3-8.5.3-8.1.4-16.5.5-25.2,0-8.7.1-17.5.1-26.4s0-17.6-.2-26.3c-.1-8.6-.3-16.9-.5-24.9,0-3.9-1.1-6.7-3.1-8.4-2-1.8-5.1-2.6-9.2-2.6s-7.1.9-9.1,2.6c-2,1.8-3.1,4.6-3.2,8.4-.3,8-.5,16.3-.6,24.9s-.2,17.4-.2,26.3,0,17.7.2,26.4c0,8.7.3,17.1.6,25.2,0,3.9,1.2,6.7,3.2,8.5s5.1,2.7,9.1,2.7h0Z"/>
    <path class="cls-5" d="M162.8,253.4l19.2-156.8h35.3l19.2,156.8h-21.7l-3.7-39.1h-22.9l-3.6,39.1h-21.8ZM190.3,195.4h18.8l-3.2-34.4-3.4-45.6h-5.5l-3.3,45.7-3.3,34.3h-.1Z"/>
    <path class="cls-3" d="M246,253.4V96.6h32.4c11.9,0,20.5,2.6,25.7,7.7,5.3,5.1,8,13.6,8.3,25.4.2,10.8.3,21,.4,30.7v29.1c0,9.7-.2,19.9-.4,30.6-.3,11.9-3,20.4-8.3,25.6-5.3,5.2-13.9,7.7-25.8,7.7h-32.3ZM267.2,234.6h11.2c4.3,0,7.5-1,9.6-3s3.2-5,3.2-9.1c.2-8,.3-15.9.4-23.8v-47.6c0-7.9-.2-15.9-.4-23.9,0-4-1.1-7-3.2-8.9-2.1-2-5.3-2.9-9.5-2.9h-11.3v119.2h0Z"/>
    <path class="cls-8" d="M378.8,253.4V115.4h-22.6v-18.8h66.3v18.8h-22.5v138h-21.2Z"/>
    <path class="cls-9" d="M460.9,255.1c-11.7,0-20.2-2.5-25.4-7.5-5.2-5-8-13.3-8.2-24.9-.1-7.8-.2-15.7-.3-23.7v-47.9c0-7.9.2-15.9.3-23.8.3-11.6,3-19.8,8.2-24.8s13.7-7.5,25.4-7.5,20.3,2.5,25.4,7.5,7.8,13.3,8.1,24.8c.2,8,.3,15.9.4,23.9,0,8,.1,15.9.1,23.9s0,15.9-.1,23.9c0,8-.2,15.9-.4,23.7-.3,11.6-3,19.9-8.1,24.9s-13.6,7.5-25.4,7.5h0ZM460.9,237.5c4.2,0,7.4-.9,9.3-2.7,2-1.8,3-4.6,3-8.5.3-8.1.4-16.5.5-25.2,0-8.7.1-17.5.1-26.4s0-17.6-.2-26.3c-.1-8.6-.3-16.9-.5-24.9,0-3.9-1.1-6.7-3.1-8.4-2-1.8-5.1-2.6-9.2-2.6s-7.1.9-9.1,2.6c-2,1.8-3.1,4.6-3.2,8.4-.3,8-.5,16.3-.6,24.9s-.2,17.4-.2,26.3,0,17.7.2,26.4c.1,8.7.3,17.1.6,25.2.1,3.9,1.2,6.7,3.2,8.5s5.1,2.7,9.1,2.7h.1Z"/>
    <path class="cls-7" d="M548.3,253.4V96.6h32.4c11.9,0,20.5,2.6,25.7,7.7,5.3,5.1,8,13.6,8.3,25.4.2,10.8.3,21,.4,30.7v29.1c0,9.7-.2,19.9-.4,30.6-.3,11.9-3,20.4-8.3,25.6-5.3,5.2-13.9,7.7-25.8,7.7h-32.3ZM569.5,234.6h11.2c4.3,0,7.5-1,9.6-3s3.2-5,3.2-9.1c.2-8,.3-15.9.4-23.8v-47.6c0-7.9-.2-15.9-.4-23.9,0-4-1.1-7-3.2-8.9-2.1-2-5.3-2.9-9.5-2.9h-11.3v119.2h0Z"/>
    <path class="cls-6" d="M620,253.4l21.2-80.8-20.4-76h20.8l8.5,36.8,4,30.7h3.9l3.8-30.7,8.3-36.8h20.8l-19.6,76.7,20.3,80.1h-20.7l-8.9-38.7-4-31.8h-3.9l-4.1,31.8-9.2,38.7h-20.8,0Z"/>
  </g>
</svg>