<?xml version="1.0" encoding="UTF-8"?>
<svg id="Layer_1" data-name="Layer 1" xmlns="http://www.w3.org/2000/svg" version="1.1" viewBox="0 0 119.1 55.4">
  <defs>
    <style>
      .cls-1 {
        fill: #fff;
        stroke-width: 0px;
      }
    </style>
  </defs>
  <g id="Bottom_Line" data-name="Bottom Line">
    <rect id="Bottom_Line-2" data-name="Bottom Line" class="cls-1" x="9.1" y="43.4" width="100.8" height="1.9"/>
  </g>
  <g id="Top_Line" data-name="Top Line">
    <rect id="Top_Line-2" data-name="Top Line" class="cls-1" x="9.1" y="10.2" width="100.8" height="1.9"/>
  </g>
  <path class="cls-1" d="M9.1,38.3v-21h4.1c1.6,0,2.7.3,3.4,1,.7.7,1.1,1.8,1.1,3.3,0,.6,0,1.2,0,1.8,0,.5,0,1.1,0,1.6,0,.5,0,1.1,0,1.6,0,1-.2,1.8-.5,2.4-.3.6-.8,1.1-1.4,1.4l2.3,8h-3l-2-7.6h-1.2v7.6h-2.8ZM11.9,28.2h1.3c.6,0,1-.1,1.3-.4.3-.3.4-.7.5-1.2,0-.6,0-1.1,0-1.7,0-.6,0-1.2,0-1.8,0-.6,0-1.2,0-1.7,0-.5-.2-.9-.5-1.2-.3-.3-.7-.4-1.3-.4h-1.3v8.4Z"/>
  <path class="cls-1" d="M25.3,38.5c-1.6,0-2.7-.3-3.4-1-.7-.7-1.1-1.8-1.1-3.3,0-1.1,0-2.1,0-3.2,0-1.1,0-2.1,0-3.2s0-2.1,0-3.2c0-1.1,0-2.1,0-3.2,0-1.6.4-2.7,1.1-3.3.7-.7,1.8-1,3.4-1s2.7.3,3.4,1c.7.7,1,1.8,1.1,3.3,0,1.1,0,2.1,0,3.2,0,1.1,0,2.1,0,3.2s0,2.1,0,3.2c0,1.1,0,2.1,0,3.2,0,1.6-.4,2.7-1.1,3.3-.7.7-1.8,1-3.4,1ZM25.3,36.1c.6,0,1-.1,1.2-.4.3-.2.4-.6.4-1.1,0-1.1,0-2.2,0-3.4,0-1.2,0-2.4,0-3.5s0-2.4,0-3.5c0-1.2,0-2.3,0-3.3,0-.5-.1-.9-.4-1.1-.3-.2-.7-.4-1.2-.4s-1,.1-1.2.4c-.3.2-.4.6-.4,1.1,0,1.1,0,2.2,0,3.3,0,1.2,0,2.3,0,3.5s0,2.4,0,3.5c0,1.2,0,2.3,0,3.4,0,.5.2.9.4,1.1.3.2.7.4,1.2.4Z"/>
  <path class="cls-1" d="M32.2,38.3l2.6-21h4.7l2.6,21h-2.9l-.5-5.2h-3.1l-.5,5.2h-2.9ZM35.8,30.5h2.5l-.4-4.6-.5-6.1h-.7l-.4,6.1-.4,4.6Z"/>
  <path class="cls-1" d="M44.7,38.3v-21h4.4c1.6,0,2.7.3,3.5,1,.7.7,1.1,1.8,1.1,3.4,0,1.4,0,2.8,0,4.1,0,1.3,0,2.6,0,3.9,0,1.3,0,2.7,0,4.1,0,1.6-.4,2.7-1.1,3.4-.7.7-1.9,1-3.5,1h-4.3ZM47.5,35.7h1.5c.6,0,1-.1,1.3-.4.3-.3.4-.7.4-1.2,0-1.1,0-2.1,0-3.2,0-1.1,0-2.1,0-3.2s0-2.1,0-3.2c0-1.1,0-2.1,0-3.2,0-.5-.2-.9-.4-1.2-.3-.3-.7-.4-1.3-.4h-1.5v16Z"/>
  <path class="cls-1" d="M63.8,38.3v-18.5h-3v-2.5h8.9v2.5h-3v18.5h-2.8Z"/>
  <path class="cls-1" d="M76.2,38.5c-1.6,0-2.7-.3-3.4-1-.7-.7-1.1-1.8-1.1-3.3,0-1.1,0-2.1,0-3.2,0-1.1,0-2.1,0-3.2s0-2.1,0-3.2c0-1.1,0-2.1,0-3.2,0-1.6.4-2.7,1.1-3.3.7-.7,1.8-1,3.4-1s2.7.3,3.4,1c.7.7,1,1.8,1.1,3.3,0,1.1,0,2.1,0,3.2,0,1.1,0,2.1,0,3.2s0,2.1,0,3.2c0,1.1,0,2.1,0,3.2,0,1.6-.4,2.7-1.1,3.3-.7.7-1.8,1-3.4,1ZM76.2,36.1c.6,0,1-.1,1.2-.4.3-.2.4-.6.4-1.1,0-1.1,0-2.2,0-3.4,0-1.2,0-2.4,0-3.5s0-2.4,0-3.5c0-1.2,0-2.3,0-3.3,0-.5-.1-.9-.4-1.1-.3-.2-.7-.4-1.2-.4s-1,.1-1.2.4c-.3.2-.4.6-.4,1.1,0,1.1,0,2.2,0,3.3,0,1.2,0,2.3,0,3.5s0,2.4,0,3.5c0,1.2,0,2.3,0,3.4,0,.5.2.9.4,1.1.3.2.7.4,1.2.4Z"/>
  <path class="cls-1" d="M89.3,38.3v-21h4.4c1.6,0,2.7.3,3.5,1,.7.7,1.1,1.8,1.1,3.4,0,1.4,0,2.8,0,4.1,0,1.3,0,2.6,0,3.9,0,1.3,0,2.7,0,4.1,0,1.6-.4,2.7-1.1,3.4-.7.7-1.9,1-3.5,1h-4.3ZM92.1,35.7h1.5c.6,0,1-.1,1.3-.4.3-.3.4-.7.4-1.2,0-1.1,0-2.1,0-3.2,0-1.1,0-2.1,0-3.2s0-2.1,0-3.2c0-1.1,0-2.1,0-3.2,0-.5-.2-.9-.4-1.2-.3-.3-.7-.4-1.3-.4h-1.5v16Z"/>
  <path class="cls-1" d="M100.3,38.3l2.8-10.8-2.7-10.2h2.8l1.1,4.9.5,4.1h.5l.5-4.1,1.1-4.9h2.8l-2.6,10.3,2.7,10.7h-2.8l-1.2-5.2-.5-4.3h-.5l-.6,4.3-1.2,5.2h-2.8Z"/>
</svg>