<?xml version="1.0" encoding="UTF-8"?>
<svg id="Layer_1" data-name="Layer 1" xmlns="http://www.w3.org/2000/svg" version="1.1" viewBox="0 0 100 47.9">
  <defs>
    <style>
      .cls-1 {
        fill: #010101;
      }

      .cls-1, .cls-2 {
        stroke-width: 0px;
      }

      .cls-2 {
        fill: #e5e5e5;
      }

      .cls-3 {
        opacity: .5;
      }
    </style>
  </defs>
  <g id="Bottom_Line" data-name="Bottom Line">
    <rect id="Bottom_Line-2" data-name="Bottom Line" class="cls-1" x=".3" y="45.3" width="99.3" height="2.1"/>
  </g>
  <g id="Top_Line" data-name="Top Line">
    <rect id="Top_Line-2" data-name="Top Line" class="cls-1" x=".3" y=".4" width="99.3" height="2.1"/>
  </g>
  <g id="Chevrons" class="cls-3">
    <g id="Chevron_1" data-name="Chevron 1">
      <path class="cls-2" d="M14.6,23.9.3,5h11l14.3,18.9-14.3,18.8H.3s14.3-18.8,14.3-18.8L.3,5h11l14.3,18.9M25.6,23.9,11.3,42.8H.3s14.3-18.8,14.3-18.8"/>
    </g>
    <g id="Chevron_2" data-name="Chevron 2">
      <path class="cls-2" d="M29.5,23.9,15.1,5h11l14.3,18.9-14.3,18.8h-11s14.3-18.8,14.3-18.8L15.1,5h11l14.3,18.9M40.4,23.9,26.1,42.8h-11s14.3-18.8,14.3-18.8"/>
    </g>
    <g id="Chevron_3" data-name="Chevron 3">
      <path class="cls-2" d="M44.3,23.9,30,5h11l14.3,18.9-14.3,18.8h-11s14.3-18.8,14.3-18.8L30,5h11l14.3,18.9M55.2,23.9,40.9,42.8h-11s14.3-18.8,14.3-18.8"/>
    </g>
    <g id="Chevron_4" data-name="Chevron 4">
      <path class="cls-2" d="M59.1,23.9,44.8,5h11l14.3,18.9-14.3,18.8h-11s14.3-18.8,14.3-18.8l-14.3-18.9h11l14.3,18.9M70.1,23.9,55.8,42.8h-11s14.3-18.8,14.3-18.8"/>
    </g>
    <g id="Chevron_5" data-name="Chevron 5">
      <path class="cls-2" d="M74,23.9,59.7,5h11l14.3,18.9-14.3,18.8h-11s14.3-18.8,14.3-18.8l-14.3-18.9h11l14.3,18.9M84.9,23.9,70.6,42.8h-11s14.3-18.8,14.3-18.8"/>
    </g>
    <g id="Chevron_6" data-name="Chevron 6">
      <path class="cls-2" d="M88.8,23.9,74.5,5h11l14.3,18.9-14.3,18.8h-11s14.3-18.8,14.3-18.8l-14.3-18.9h11l14.3,18.9M99.8,23.9,85.5,42.8h-11s14.3-18.8,14.3-18.8"/>
    </g>
  </g>
  <g id="Road_to_DX_Text" data-name="Road to DX Text">
    <path class="cls-1" d="M.3,35.3V12.4h4.5c1.7,0,2.9.4,3.7,1.1.8.7,1.2,1.9,1.2,3.6,0,.7,0,1.3,0,1.9,0,.6,0,1.1,0,1.7,0,.6,0,1.1,0,1.8,0,1.1-.2,2-.6,2.6-.3.7-.9,1.2-1.6,1.5l2.5,8.8h-3.3l-2.1-8.2h-1.3v8.2H.3ZM3.4,24.3h1.4c.6,0,1.1-.1,1.4-.4.3-.3.5-.7.5-1.3,0-.6,0-1.2,0-1.9,0-.6,0-1.3,0-1.9,0-.6,0-1.3,0-1.9,0-.6-.2-1-.5-1.3-.3-.3-.8-.4-1.4-.4h-1.4v9.2Z"/>
    <path class="cls-1" d="M16.5,35.6c-1.7,0-2.9-.4-3.7-1.1-.8-.7-1.2-1.9-1.2-3.6,0-1.1,0-2.3,0-3.5,0-1.2,0-2.3,0-3.5s0-2.3,0-3.5c0-1.2,0-2.3,0-3.5,0-1.7.4-2.9,1.2-3.6.8-.7,2-1.1,3.7-1.1s3,.4,3.7,1.1c.7.7,1.1,1.9,1.2,3.6,0,1.2,0,2.3,0,3.5,0,1.2,0,2.3,0,3.5s0,2.3,0,3.5c0,1.2,0,2.3,0,3.5,0,1.7-.4,2.9-1.2,3.6-.7.7-2,1.1-3.7,1.1ZM16.5,33c.6,0,1.1-.1,1.4-.4.3-.3.4-.7.4-1.2,0-1.2,0-2.4,0-3.7,0-1.3,0-2.6,0-3.9s0-2.6,0-3.8c0-1.3,0-2.5,0-3.6,0-.6-.2-1-.5-1.2-.3-.3-.7-.4-1.3-.4s-1,.1-1.3.4c-.3.3-.5.7-.5,1.2,0,1.2,0,2.4,0,3.6,0,1.3,0,2.5,0,3.8s0,2.6,0,3.9c0,1.3,0,2.5,0,3.7,0,.6.2,1,.5,1.2.3.3.7.4,1.3.4Z"/>
    <path class="cls-1" d="M22.5,35.3l2.8-22.9h5.2l2.8,22.9h-3.2l-.5-5.7h-3.3l-.5,5.7h-3.2ZM26.5,26.8h2.7l-.5-5-.5-6.7h-.8l-.5,6.7-.5,5Z"/>
    <path class="cls-1" d="M34.6,35.3V12.4h4.7c1.7,0,3,.4,3.8,1.1.8.7,1.2,2,1.2,3.7,0,1.6,0,3.1,0,4.5,0,1.4,0,2.8,0,4.2,0,1.4,0,2.9,0,4.5,0,1.7-.4,3-1.2,3.7-.8.8-2,1.1-3.8,1.1h-4.7ZM37.7,32.6h1.6c.6,0,1.1-.1,1.4-.4.3-.3.5-.7.5-1.3,0-1.2,0-2.3,0-3.5,0-1.2,0-2.3,0-3.5s0-2.3,0-3.5c0-1.2,0-2.3,0-3.5,0-.6-.2-1-.5-1.3-.3-.3-.8-.4-1.4-.4h-1.6v17.4Z"/>
    <path class="cls-1" d="M54,35.3V15.2h-3.3v-2.7h9.7v2.7h-3.3v20.2h-3.1Z"/>
    <path class="cls-1" d="M66,35.6c-1.7,0-2.9-.4-3.7-1.1-.8-.7-1.2-1.9-1.2-3.6,0-1.1,0-2.3,0-3.5,0-1.2,0-2.3,0-3.5s0-2.3,0-3.5c0-1.2,0-2.3,0-3.5,0-1.7.4-2.9,1.2-3.6.8-.7,2-1.1,3.7-1.1s3,.4,3.7,1.1c.7.7,1.1,1.9,1.2,3.6,0,1.2,0,2.3,0,3.5,0,1.2,0,2.3,0,3.5s0,2.3,0,3.5c0,1.2,0,2.3,0,3.5,0,1.7-.4,2.9-1.2,3.6-.7.7-2,1.1-3.7,1.1ZM66,33c.6,0,1.1-.1,1.4-.4.3-.3.4-.7.4-1.2,0-1.2,0-2.4,0-3.7,0-1.3,0-2.6,0-3.9s0-2.6,0-3.8c0-1.3,0-2.5,0-3.6,0-.6-.2-1-.5-1.2-.3-.3-.7-.4-1.3-.4s-1,.1-1.3.4c-.3.3-.5.7-.5,1.2,0,1.2,0,2.4,0,3.6,0,1.3,0,2.5,0,3.8s0,2.6,0,3.9c0,1.3,0,2.5,0,3.7,0,.6.2,1,.5,1.2.3.3.7.4,1.3.4Z"/>
    <path class="cls-1" d="M78.8,35.3V12.4h4.7c1.7,0,3,.4,3.8,1.1.8.7,1.2,2,1.2,3.7,0,1.6,0,3.1,0,4.5,0,1.4,0,2.8,0,4.2,0,1.4,0,2.9,0,4.5,0,1.7-.4,3-1.2,3.7-.8.8-2,1.1-3.8,1.1h-4.7ZM81.8,32.6h1.6c.6,0,1.1-.1,1.4-.4.3-.3.5-.7.5-1.3,0-1.2,0-2.3,0-3.5,0-1.2,0-2.3,0-3.5s0-2.3,0-3.5c0-1.2,0-2.3,0-3.5,0-.6-.2-1-.5-1.3-.3-.3-.8-.4-1.4-.4h-1.6v17.4Z"/>
    <path class="cls-1" d="M89.2,35.3l3.1-11.8-3-11.1h3l1.2,5.4.6,4.5h.6l.6-4.5,1.2-5.4h3l-2.9,11.2,3,11.7h-3l-1.3-5.7-.6-4.6h-.6l-.6,4.6-1.3,5.7h-3Z"/>
  </g>
</svg>