<?xml version="1.0" encoding="UTF-8"?>
<svg id="Layer_1" data-name="Layer 1" xmlns="http://www.w3.org/2000/svg" xmlns:xlink="http://www.w3.org/1999/xlink" version="1.1" viewBox="0 0 699 413.3">
  <defs>
    <style>
      .cls-1 {
        fill: url(#linear-gradient);
      }

      .cls-1, .cls-2, .cls-3, .cls-4, .cls-5, .cls-6, .cls-7, .cls-8, .cls-9, .cls-10 {
        stroke-width: 0px;
      }

      .cls-2 {
        fill: #999;
      }

      .cls-11 {
        opacity: .2;
      }

      .cls-12 {
        opacity: .5;
      }

      .cls-3 {
        fill: url(#linear-gradient-4);
      }

      .cls-4 {
        fill: url(#linear-gradient-2);
      }

      .cls-5 {
        fill: url(#linear-gradient-3);
      }

      .cls-6 {
        fill: url(#linear-gradient-8);
      }

      .cls-7 {
        fill: url(#linear-gradient-7);
      }

      .cls-8 {
        fill: url(#linear-gradient-5);
      }

      .cls-9 {
        fill: url(#linear-gradient-6);
      }

      .cls-10 {
        fill: #fff;
      }
    </style>
    <linearGradient id="linear-gradient" x1="44.4" y1="96.7" x2="44.4" y2="253.5" gradientUnits="userSpaceOnUse">
      <stop offset="0" stop-color="#fff"/>
      <stop offset="1" stop-color="#231f20"/>
    </linearGradient>
    <linearGradient id="linear-gradient-2" x1="121.7" y1="95.1" x2="121.7" y2="255.2" xlink:href="#linear-gradient"/>
    <linearGradient id="linear-gradient-3" x1="199.3" x2="199.3" xlink:href="#linear-gradient"/>
    <linearGradient id="linear-gradient-4" x1="279.1" x2="279.1" xlink:href="#linear-gradient"/>
    <linearGradient id="linear-gradient-5" x1="389" x2="389" xlink:href="#linear-gradient"/>
    <linearGradient id="linear-gradient-6" x1="460.6" y1="95.1" x2="460.6" y2="255.2" xlink:href="#linear-gradient"/>
    <linearGradient id="linear-gradient-7" x1="581.4" x2="581.4" xlink:href="#linear-gradient"/>
    <linearGradient id="linear-gradient-8" x1="655.4" x2="655.4" xlink:href="#linear-gradient"/>
  </defs>
  <g id="Bottom_Line" data-name="Bottom Line">
    <rect id="Bottom_Line-2" data-name="Bottom Line" class="cls-10" x="10.8" y="322.1" width="680" height="14.4"/>
  </g>
  <g id="Top_Line" data-name="Top Line">
    <rect id="Top_Line-2" data-name="Top Line" class="cls-10" x="10.8" y="14.1" width="680" height="14.4"/>
  </g>
  <g id="Chevrons" class="cls-12">
    <g id="Chevron_1" data-name="Chevron 1">
      <path class="cls-2" d="M108.8,175.6,10.8,46.1h75l98,129.5-98,129H10.8s98-129,98-129L10.8,46.1h75l98,129.5M183.8,175.6,85.8,304.6H10.8s98-129,98-129"/>
    </g>
    <g id="Chevron_2" data-name="Chevron 2">
      <path class="cls-2" d="M210.4,175.6,112.4,46.1h75l98,129.5-98,129h-75s98-129,98-129L112.4,46.1h75l98,129.5M285.4,175.6,187.4,304.6h-75s98-129,98-129"/>
    </g>
    <g id="Chevron_3" data-name="Chevron 3">
      <path class="cls-2" d="M312,175.6,214,46.1h75l98,129.5-98,129h-75s98-129,98-129L214,46.1h75l98,129.5M387,175.6,289,304.6h-75s98-129,98-129"/>
    </g>
    <g id="Chevron_4" data-name="Chevron 4">
      <path class="cls-2" d="M413.6,175.6,315.6,46.1h75l98,129.5-98,129h-75s98-129,98-129l-98-129.5h75l98,129.5M488.6,175.6,390.6,304.6h-75s98-129,98-129"/>
    </g>
    <g id="Chevron_5" data-name="Chevron 5">
      <path class="cls-2" d="M515.2,175.6,417.2,46.1h75l98,129.5-98,129h-75s98-129,98-129l-98-129.5h75l98,129.5M590.2,175.6,492.2,304.6h-75s98-129,98-129"/>
    </g>
    <g id="Chevron_6" data-name="Chevron 6">
      <path class="cls-2" d="M616.8,175.6,518.8,46.1h75l98,129.5-98,129h-75s98-129,98-129l-98-129.5h75l98,129.5M691.8,175.6,593.8,304.6h-75s98-129,98-129"/>
    </g>
  </g>
  <g id="Road_to_DX_Text" data-name="Road to DX Text">
    <path class="cls-10" d="M10.7,253.5V96.7h30.9c11.7,0,20.2,2.5,25.4,7.4,5.3,4.9,8.1,13.1,8.5,24.4.2,4.8.3,9.1.4,13.1,0,4,0,7.8,0,11.7,0,3.8-.2,7.9-.4,12.1-.3,7.4-1.5,13.4-3.8,18-2.3,4.6-5.8,8-10.7,10.2l17.1,60h-22.5l-14.7-56.4h-9v56.4H10.7ZM31.9,178.4h9.6c4.2,0,7.4-1,9.5-3,2.1-2,3.2-5,3.4-9,.2-4.2.3-8.5.4-12.9,0-4.4,0-8.8,0-13.2,0-4.4-.2-8.7-.4-12.9-.2-4-1.3-7-3.4-8.9-2.1-2-5.2-2.9-9.4-2.9h-9.7v62.8Z"/>
    <path class="cls-10" d="M121.7,255.2c-11.7,0-20.2-2.5-25.4-7.5-5.2-5-8-13.3-8.2-24.9-.1-7.8-.2-15.7-.3-23.7,0-8,0-16,0-24s0-16,0-23.9c0-7.9.2-15.9.3-23.8.3-11.6,3-19.8,8.2-24.8,5.2-5,13.7-7.5,25.4-7.5s20.3,2.5,25.4,7.5c5.1,5,7.8,13.3,8.1,24.8.2,8,.3,15.9.4,23.9,0,8,.1,15.9.1,23.9s0,15.9-.1,23.9c0,8-.2,15.9-.4,23.7-.3,11.6-3,19.9-8.1,24.9-5.1,5-13.6,7.5-25.4,7.5ZM121.7,237.7c4.2,0,7.4-.9,9.3-2.7,2-1.8,3-4.6,3-8.5.3-8.1.4-16.5.5-25.2,0-8.7.1-17.5.1-26.4s0-17.6-.2-26.3c-.1-8.6-.3-16.9-.5-24.9,0-3.9-1.1-6.7-3.1-8.4-2-1.8-5.1-2.6-9.2-2.6s-7.1.9-9.1,2.6c-2,1.8-3.1,4.6-3.2,8.4-.3,8-.5,16.3-.6,24.9-.1,8.6-.2,17.4-.2,26.3s0,17.7.2,26.4c.1,8.7.3,17.1.6,25.2.1,3.9,1.2,6.7,3.2,8.5,2,1.8,5.1,2.7,9.1,2.7Z"/>
    <path class="cls-10" d="M162.4,253.5l19.2-156.8h35.3l19.2,156.8h-21.7l-3.7-39.1h-22.9l-3.6,39.1h-21.8ZM189.9,195.5h18.8l-3.2-34.4-3.4-45.6h-5.5l-3.3,45.7-3.3,34.3Z"/>
    <path class="cls-10" d="M245.6,253.5V96.7h32.4c11.9,0,20.5,2.6,25.7,7.7,5.3,5.1,8,13.6,8.3,25.4.2,10.8.3,21,.4,30.7,0,9.7,0,19.4,0,29.1,0,9.7-.2,19.9-.4,30.6-.3,11.9-3,20.4-8.3,25.6-5.3,5.2-13.9,7.7-25.8,7.7h-32.3ZM266.8,234.7h11.2c4.3,0,7.5-1,9.6-3,2.1-2,3.2-5,3.2-9.1.2-8,.3-15.9.4-23.8,0-7.9,0-15.8,0-23.8s0-15.9,0-23.8c0-7.9-.2-15.9-.4-23.9,0-4-1.1-7-3.2-8.9-2.1-2-5.3-2.9-9.5-2.9h-11.3v119.2Z"/>
    <path class="cls-10" d="M378.4,253.5V115.6h-22.6v-18.8h66.3v18.8h-22.5v138h-21.2Z"/>
    <path class="cls-10" d="M460.5,255.2c-11.7,0-20.2-2.5-25.4-7.5-5.2-5-8-13.3-8.2-24.9-.1-7.8-.2-15.7-.3-23.7,0-8,0-16,0-24s0-16,0-23.9c0-7.9.2-15.9.3-23.8.3-11.6,3-19.8,8.2-24.8,5.2-5,13.7-7.5,25.4-7.5s20.3,2.5,25.4,7.5c5.1,5,7.8,13.3,8.1,24.8.2,8,.3,15.9.4,23.9,0,8,.1,15.9.1,23.9s0,15.9-.1,23.9c0,8-.2,15.9-.4,23.7-.3,11.6-3,19.9-8.1,24.9-5.1,5-13.6,7.5-25.4,7.5ZM460.5,237.7c4.2,0,7.4-.9,9.3-2.7,2-1.8,3-4.6,3-8.5.3-8.1.4-16.5.5-25.2,0-8.7.1-17.5.1-26.4s0-17.6-.2-26.3c-.1-8.6-.3-16.9-.5-24.9,0-3.9-1.1-6.7-3.1-8.4-2-1.8-5.1-2.6-9.2-2.6s-7.1.9-9.1,2.6c-2,1.8-3.1,4.6-3.2,8.4-.3,8-.5,16.3-.6,24.9-.1,8.6-.2,17.4-.2,26.3s0,17.7.2,26.4c.1,8.7.3,17.1.6,25.2.1,3.9,1.2,6.7,3.2,8.5,2,1.8,5.1,2.7,9.1,2.7Z"/>
    <path class="cls-10" d="M548,253.5V96.7h32.4c11.9,0,20.5,2.6,25.7,7.7,5.3,5.1,8,13.6,8.3,25.4.2,10.8.3,21,.4,30.7,0,9.7,0,19.4,0,29.1,0,9.7-.2,19.9-.4,30.6-.3,11.9-3,20.4-8.3,25.6-5.3,5.2-13.9,7.7-25.8,7.7h-32.3ZM569.1,234.7h11.2c4.3,0,7.5-1,9.6-3,2.1-2,3.2-5,3.2-9.1.2-8,.3-15.9.4-23.8,0-7.9,0-15.8,0-23.8s0-15.9,0-23.8c0-7.9-.2-15.9-.4-23.9,0-4-1.1-7-3.2-8.9-2.1-2-5.3-2.9-9.5-2.9h-11.3v119.2Z"/>
    <path class="cls-10" d="M619.6,253.5l21.2-80.8-20.4-76h20.8l8.5,36.8,4,30.7h3.9l3.8-30.7,8.3-36.8h20.8l-19.6,76.7,20.3,80.1h-20.7l-8.9-38.7-4-31.8h-3.9l-4.1,31.8-9.2,38.7h-20.8Z"/>
  </g>
  <g id="Road_to_DX_Text-2" data-name="Road to DX Text" class="cls-11">
    <path class="cls-1" d="M10.7,253.5V96.7h30.9c11.7,0,20.2,2.5,25.4,7.4,5.3,4.9,8.1,13.1,8.5,24.4.2,4.8.3,9.1.4,13.1,0,4,0,7.8,0,11.7,0,3.8-.2,7.9-.4,12.1-.3,7.4-1.5,13.4-3.8,18-2.3,4.6-5.8,8-10.7,10.2l17.1,60h-22.5l-14.7-56.4h-9v56.4H10.7ZM31.9,178.4h9.6c4.2,0,7.4-1,9.5-3,2.1-2,3.2-5,3.4-9,.2-4.2.3-8.5.4-12.9,0-4.4,0-8.8,0-13.2,0-4.4-.2-8.7-.4-12.9-.2-4-1.3-7-3.4-8.9-2.1-2-5.2-2.9-9.4-2.9h-9.7v62.8Z"/>
    <path class="cls-4" d="M121.7,255.2c-11.7,0-20.2-2.5-25.4-7.5-5.2-5-8-13.3-8.2-24.9-.1-7.8-.2-15.7-.3-23.7,0-8,0-16,0-24s0-16,0-23.9c0-7.9.2-15.9.3-23.8.3-11.6,3-19.8,8.2-24.8,5.2-5,13.7-7.5,25.4-7.5s20.3,2.5,25.4,7.5c5.1,5,7.8,13.3,8.1,24.8.2,8,.3,15.9.4,23.9,0,8,.1,15.9.1,23.9s0,15.9-.1,23.9c0,8-.2,15.9-.4,23.7-.3,11.6-3,19.9-8.1,24.9-5.1,5-13.6,7.5-25.4,7.5ZM121.7,237.7c4.2,0,7.4-.9,9.3-2.7,2-1.8,3-4.6,3-8.5.3-8.1.4-16.5.5-25.2,0-8.7.1-17.5.1-26.4s0-17.6-.2-26.3c-.1-8.6-.3-16.9-.5-24.9,0-3.9-1.1-6.7-3.1-8.4-2-1.8-5.1-2.6-9.2-2.6s-7.1.9-9.1,2.6c-2,1.8-3.1,4.6-3.2,8.4-.3,8-.5,16.3-.6,24.9-.1,8.6-.2,17.4-.2,26.3s0,17.7.2,26.4c.1,8.7.3,17.1.6,25.2.1,3.9,1.2,6.7,3.2,8.5,2,1.8,5.1,2.7,9.1,2.7Z"/>
    <path class="cls-5" d="M162.4,253.5l19.2-156.8h35.3l19.2,156.8h-21.7l-3.7-39.1h-22.9l-3.6,39.1h-21.8ZM189.9,195.5h18.8l-3.2-34.4-3.4-45.6h-5.5l-3.3,45.7-3.3,34.3Z"/>
    <path class="cls-3" d="M245.6,253.5V96.7h32.4c11.9,0,20.5,2.6,25.7,7.7,5.3,5.1,8,13.6,8.3,25.4.2,10.8.3,21,.4,30.7,0,9.7,0,19.4,0,29.1,0,9.7-.2,19.9-.4,30.6-.3,11.9-3,20.4-8.3,25.6-5.3,5.2-13.9,7.7-25.8,7.7h-32.3ZM266.8,234.7h11.2c4.3,0,7.5-1,9.6-3,2.1-2,3.2-5,3.2-9.1.2-8,.3-15.9.4-23.8,0-7.9,0-15.8,0-23.8s0-15.9,0-23.8c0-7.9-.2-15.9-.4-23.9,0-4-1.1-7-3.2-8.9-2.1-2-5.3-2.9-9.5-2.9h-11.3v119.2Z"/>
    <path class="cls-8" d="M378.4,253.5V115.6h-22.6v-18.8h66.3v18.8h-22.5v138h-21.2Z"/>
    <path class="cls-9" d="M460.5,255.2c-11.7,0-20.2-2.5-25.4-7.5-5.2-5-8-13.3-8.2-24.9-.1-7.8-.2-15.7-.3-23.7,0-8,0-16,0-24s0-16,0-23.9c0-7.9.2-15.9.3-23.8.3-11.6,3-19.8,8.2-24.8,5.2-5,13.7-7.5,25.4-7.5s20.3,2.5,25.4,7.5c5.1,5,7.8,13.3,8.1,24.8.2,8,.3,15.9.4,23.9,0,8,.1,15.9.1,23.9s0,15.9-.1,23.9c0,8-.2,15.9-.4,23.7-.3,11.6-3,19.9-8.1,24.9-5.1,5-13.6,7.5-25.4,7.5ZM460.5,237.7c4.2,0,7.4-.9,9.3-2.7,2-1.8,3-4.6,3-8.5.3-8.1.4-16.5.5-25.2,0-8.7.1-17.5.1-26.4s0-17.6-.2-26.3c-.1-8.6-.3-16.9-.5-24.9,0-3.9-1.1-6.7-3.1-8.4-2-1.8-5.1-2.6-9.2-2.6s-7.1.9-9.1,2.6c-2,1.8-3.1,4.6-3.2,8.4-.3,8-.5,16.3-.6,24.9-.1,8.6-.2,17.4-.2,26.3s0,17.7.2,26.4c.1,8.7.3,17.1.6,25.2.1,3.9,1.2,6.7,3.2,8.5,2,1.8,5.1,2.7,9.1,2.7Z"/>
    <path class="cls-7" d="M548,253.5V96.7h32.4c11.9,0,20.5,2.6,25.7,7.7,5.3,5.1,8,13.6,8.3,25.4.2,10.8.3,21,.4,30.7,0,9.7,0,19.4,0,29.1,0,9.7-.2,19.9-.4,30.6-.3,11.9-3,20.4-8.3,25.6-5.3,5.2-13.9,7.7-25.8,7.7h-32.3ZM569.1,234.7h11.2c4.3,0,7.5-1,9.6-3,2.1-2,3.2-5,3.2-9.1.2-8,.3-15.9.4-23.8,0-7.9,0-15.8,0-23.8s0-15.9,0-23.8c0-7.9-.2-15.9-.4-23.9,0-4-1.1-7-3.2-8.9-2.1-2-5.3-2.9-9.5-2.9h-11.3v119.2Z"/>
    <path class="cls-6" d="M619.6,253.5l21.2-80.8-20.4-76h20.8l8.5,36.8,4,30.7h3.9l3.8-30.7,8.3-36.8h20.8l-19.6,76.7,20.3,80.1h-20.7l-8.9-38.7-4-31.8h-3.9l-4.1,31.8-9.2,38.7h-20.8Z"/>
  </g>
  <g>
    <path class="cls-10" d="M7.2,400.4v-48h7.7c2.8,0,4.8.6,6,1.9,1.2,1.2,1.9,3.3,1.9,6.1,0,3.8,0,7.4.1,10.9,0,3.4,0,6.9,0,10.3,0,3.4,0,7-.1,10.9,0,2.9-.7,4.9-1.9,6.1-1.2,1.2-3.2,1.9-6,1.9h-7.6ZM11.2,396.8h3.7c1.4,0,2.4-.3,3-1,.6-.6,1-1.7,1-3.1,0-2.7,0-5.5.1-8.2,0-2.7,0-5.5,0-8.2s0-5.5,0-8.2c0-2.7,0-5.5-.1-8.2,0-1.4-.3-2.4-1-3s-1.6-.9-3-.9h-3.7v40.8Z"/>
    <path class="cls-10" d="M27.1,400.4l5.4-24.5-5.1-23.5h3.9l2.2,11.3,1.6,10.6h1.2l1.7-10.6,2.1-11.3h3.9l-5,23.7,5.2,24.3h-3.9l-2.3-11.9-1.7-10.6h-1.2l-1.7,10.6-2.3,11.9h-3.9Z"/>
    <path class="cls-10" d="M69.9,400.9c-2.8,0-4.7-.6-5.9-1.8-1.2-1.2-1.8-3.2-1.8-6,0-2.8-.1-5.6-.1-8.4s0-5.5,0-8.2,0-5.5,0-8.2,0-5.5.1-8.4c0-2.6.7-4.6,1.9-5.9,1.2-1.3,3.2-2,5.8-2s4.7.6,5.9,1.8c1.2,1.2,1.9,3.2,2,6.1,0,.7,0,1.7,0,2.9s0,2.3,0,3.5c0,1.2,0,2.1,0,2.9h-4c0-1,0-2.1,0-3.2,0-1.1,0-2.2,0-3.4s0-2.2,0-3.2c0-1.4-.3-2.4-.9-3-.6-.6-1.6-.9-3-.9s-2.2.3-2.8.9-.9,1.6-.9,3c0,3-.1,5.9-.2,8.7,0,2.8,0,5.6,0,8.4s0,5.6,0,8.4c0,2.8,0,5.7.2,8.7,0,1.4.4,2.4.9,3,.6.6,1.5.9,2.8.9s2.5-.3,3.1-.9c.6-.6,1-1.6,1-3,0-1.1,0-2.2,0-3.4s0-2.4,0-3.6c0-1.2,0-2.3,0-3.4h4c0,1.7,0,3.3.1,4.9s0,3.2,0,4.9c-.1,2.8-.8,4.8-2,6s-3.3,1.8-6.1,1.8Z"/>
    <path class="cls-10" d="M84.3,400.4v-48h13.6v3.6h-9.6v18.4h9v3.6h-9v18.8h9.6v3.6h-13.6Z"/>
    <path class="cls-10" d="M103.3,400.4v-48h7.3c2.7,0,4.7.6,5.9,1.8,1.2,1.2,1.9,3.2,2,6,0,1.8.1,3.5.2,5.1,0,1.6,0,3.1,0,4.6,0,1.5,0,3-.2,4.5,0,1.9-.4,3.5-1,4.6-.6,1.2-1.6,2-2.9,2.5l4.9,19h-4.2l-4.4-18.3h-3.5v18.3h-4ZM107.3,378.5h3.3c1.4,0,2.4-.3,3-1,.6-.6,1-1.6,1-3,0-1.6.1-3.2.1-4.8,0-1.6,0-3.3,0-4.9,0-1.6,0-3.2-.1-4.8,0-1.4-.4-2.4-1-3s-1.6-.9-3-.9h-3.3v22.5Z"/>
    <path class="cls-10" d="M128.4,400.4v-44.4h-6.1v-3.6h16.2v3.6h-6.1v44.4h-4Z"/>
    <path class="cls-10" d="M142.8,400.4v-48h4v48h-4Z"/>
    <path class="cls-10" d="M154.1,400.4v-48h13.6v3.6h-9.6v18.4h9v3.6h-9v22.4h-4Z"/>
    <path class="cls-10" d="M172.6,400.4v-48h4v48h-4Z"/>
    <path class="cls-10" d="M191.4,400.9c-2.8,0-4.7-.6-5.9-1.8-1.2-1.2-1.8-3.2-1.8-6,0-2.8-.1-5.6-.1-8.4s0-5.5,0-8.2,0-5.5,0-8.2,0-5.5.1-8.4c0-2.6.7-4.6,1.9-5.9,1.2-1.3,3.2-2,5.8-2s4.7.6,5.9,1.8c1.2,1.2,1.9,3.2,2,6.1,0,.7,0,1.7,0,2.9s0,2.3,0,3.5c0,1.2,0,2.1,0,2.9h-4c0-1,0-2.1,0-3.2,0-1.1,0-2.2,0-3.4s0-2.2,0-3.2c0-1.4-.3-2.4-.9-3-.6-.6-1.6-.9-3-.9s-2.2.3-2.8.9-.9,1.6-.9,3c0,3-.1,5.9-.2,8.7,0,2.8,0,5.6,0,8.4s0,5.6,0,8.4c0,2.8,0,5.7.2,8.7,0,1.4.4,2.4.9,3,.6.6,1.5.9,2.8.9s2.5-.3,3.1-.9c.6-.6,1-1.6,1-3,0-1.1,0-2.2,0-3.4s0-2.4,0-3.6c0-1.2,0-2.3,0-3.4h4c0,1.7,0,3.3.1,4.9s0,3.2,0,4.9c-.1,2.8-.8,4.8-2,6s-3.3,1.8-6.1,1.8Z"/>
    <path class="cls-10" d="M203.8,400.4l5.1-48h7.4l5.1,48h-4.1l-1.2-13.9h-7l-1.3,13.9h-4ZM209.5,382.9h6.3l-1-10.5-1.4-16.4h-1.7l-1.3,16.4-1,10.5Z"/>
    <path class="cls-10" d="M228.5,400.4v-44.4h-6.1v-3.6h16.2v3.6h-6.1v44.4h-4Z"/>
    <path class="cls-10" d="M243,400.4v-48h4v48h-4Z"/>
    <path class="cls-10" d="M261.9,400.8c-2.8,0-4.8-.6-6-1.8-1.2-1.2-1.8-3.2-1.9-6,0-2.9-.1-5.7-.1-8.4,0-2.7,0-5.5,0-8.2s0-5.5,0-8.2c0-2.8,0-5.6.1-8.4,0-2.8.7-4.8,1.9-6,1.2-1.2,3.2-1.8,6-1.8s4.8.6,6,1.8c1.2,1.2,1.8,3.2,1.9,6,0,2.9.1,5.7.1,8.4s0,5.5,0,8.2,0,5.5,0,8.2,0,5.5-.1,8.4c0,2.8-.7,4.7-1.9,6-1.2,1.2-3.2,1.8-6,1.8ZM261.9,397.4c1.4,0,2.3-.3,2.9-.9.6-.6.9-1.5.9-2.9,0-3,.2-5.9.2-8.8,0-2.9,0-5.8,0-8.6s0-5.7,0-8.5-.1-5.7-.2-8.5c0-1.4-.3-2.4-.9-3-.6-.6-1.6-.9-2.9-.9s-2.4.3-3,.9c-.6.6-.9,1.6-1,3,0,2.8-.1,5.7-.2,8.5s0,5.7,0,8.5c0,2.9,0,5.7,0,8.6,0,2.9.1,5.8.2,8.8,0,1.4.4,2.4,1,2.9.6.6,1.6.9,3,.9Z"/>
    <path class="cls-10" d="M276.7,400.4v-48h6.8l2.7,15.2,4.1,29.2h1.3l-.7-27.4-.2-17h3.9v48h-7l-3-17.2-3.5-27.2h-1.4l.6,26.5.3,18h-3.9Z"/>
    <path class="cls-10" d="M323.4,400.8c-2.8,0-4.8-.6-6-1.9-1.2-1.2-1.9-3.2-2-6,0-1.8,0-3.3,0-4.5s0-2.3.1-3.2c0-.9.2-1.9.3-2.9.1-1.7.6-3.1,1.3-4.3.7-1.1,1.5-2.2,2.4-3.2-1-2.6-1.9-5.2-2.5-7.7-.6-2.5-1-4.8-1-7-.1-2.6.4-4.6,1.5-6,1.1-1.4,3-2.1,5.5-2.1s4.6.7,5.7,2c1.1,1.3,1.7,3.3,1.5,6-.1,2.6-.6,5.1-1.6,7.4-1,2.3-2.3,4.5-3.9,6.4-.2.2-.3.5-.5.8-.2.3-.4.5-.6.8.7,1.7,1.5,3.4,2.4,5.1.8,1.7,1.7,3.3,2.6,4.9,0-1.4-.1-2.9-.3-4.5-.1-1.6-.2-3.1-.4-4.6h3.4c.2,1.3.3,2.9.4,4.6.1,1.7.2,3.5.2,5.2,0,1.7,0,3.3,0,4.7.9,1.5,1.8,2.8,2.6,4,.8,1.2,1.5,2.3,2.2,3.3l-2.7,2.3c-.5-.7-1-1.4-1.5-2.1-.5-.7-1-1.5-1.6-2.3-.3,1.1-.8,2-1.5,2.7-.6.7-1.5,1.2-2.5,1.5-1,.3-2.3.5-3.8.5ZM323.5,397.3c1.3,0,2.3-.2,3-.6.6-.4,1.1-1.1,1.3-1.9.2-.8.3-1.9.4-3.2-1.2-2-2.4-4-3.6-6.2-1.2-2.2-2.3-4.3-3.3-6.6-.3.5-.7,1.1-1,1.7-.3.6-.5,1.3-.6,2-.2.8-.3,1.7-.3,2.6s-.1,1.9-.1,3.2c0,1.2,0,2.8,0,4.7,0,1.5.4,2.6,1.1,3.3s1.7,1,3.2,1ZM322.2,371.8c1-1.3,1.9-2.7,2.5-3.9.7-1.3,1.2-2.6,1.5-3.9.3-1.3.5-2.6.5-3.9.1-1.7,0-3-.6-3.7-.6-.8-1.6-1.2-3.1-1.2s-2.2.4-2.7,1.1c-.5.8-.8,1.9-.8,3.4s.2,3.7.7,5.7c.5,2.1,1.1,4.2,1.9,6.4Z"/>
    <path class="cls-10" d="M364.6,400.8c-2.7,0-4.7-.6-5.9-1.9-1.2-1.2-1.9-3.3-2-6.1,0-1.2,0-2.4,0-3.4,0-1,0-2,0-3.1,0-1,0-2.2.1-3.4h3.8c0,1.8-.1,3.6-.1,5.3s0,3.5.1,5.2c0,1.4.4,2.4,1,3s1.6.9,3,.9,2.3-.3,2.9-.9c.6-.6.9-1.6,1-3,0-1.1,0-2.1,0-3,0-.9,0-1.8,0-2.7,0-.9,0-2,0-3.3,0-1.5-.3-2.8-.6-3.8-.4-1-1.1-1.7-2.3-2l-3.1-.8c-1.5-.4-2.7-1-3.5-1.7-.8-.8-1.4-1.8-1.7-3-.3-1.3-.5-2.8-.6-4.7,0-1.3,0-2.7,0-4.2,0-1.5,0-3,0-4.5,0-1.9.3-3.4.9-4.5.5-1.1,1.4-2,2.5-2.5,1.1-.5,2.7-.8,4.6-.8s4.6.6,5.7,1.8c1.2,1.2,1.8,3.2,1.9,6.1,0,1.1,0,2.4,0,4s0,3.3,0,5.1h-3.9c0-1.6,0-3.3.1-4.9s0-3.3,0-4.9c0-1.4-.4-2.4-1-3-.6-.6-1.6-.9-2.8-.9s-2.3.3-2.9.9c-.6.6-.9,1.6-1,3,0,1.5-.1,3.1-.1,4.6,0,1.6,0,3.1.1,4.6,0,1.8.3,3.1.6,4s1.2,1.5,2.4,1.8l2.9.7c1.6.4,2.8,1,3.6,1.8.8.8,1.4,1.8,1.7,3.1.3,1.3.5,2.8.6,4.6,0,1.2,0,2.3,0,3.1s0,1.7,0,2.5c0,.8,0,1.7,0,2.8,0,2.8-.7,4.8-1.9,6.1-1.2,1.2-3.2,1.9-5.9,1.9Z"/>
    <path class="cls-10" d="M377,400.4l5.1-48h7.4l5.1,48h-4.1l-1.2-13.9h-7l-1.3,13.9h-4ZM382.7,382.9h6.3l-1-10.5-1.4-16.4h-1.7l-1.3,16.4-1,10.5Z"/>
    <path class="cls-10" d="M400,400.4v-48h4v44.4h9.6v3.6h-13.6Z"/>
    <path class="cls-10" d="M418.3,400.4v-48h13.6v3.6h-9.6v18.4h9v3.6h-9v18.8h9.6v3.6h-13.6Z"/>
    <path class="cls-10" d="M444.5,400.8c-2.7,0-4.7-.6-5.9-1.9-1.2-1.2-1.9-3.3-2-6.1,0-1.2,0-2.4,0-3.4,0-1,0-2,0-3.1,0-1,0-2.2.1-3.4h3.8c0,1.8-.1,3.6-.1,5.3s0,3.5.1,5.2c0,1.4.4,2.4,1,3s1.6.9,3,.9,2.3-.3,2.9-.9c.6-.6.9-1.6,1-3,0-1.1,0-2.1,0-3,0-.9,0-1.8,0-2.7,0-.9,0-2,0-3.3,0-1.5-.3-2.8-.6-3.8-.4-1-1.1-1.7-2.3-2l-3.1-.8c-1.5-.4-2.7-1-3.5-1.7-.8-.8-1.4-1.8-1.7-3-.3-1.3-.5-2.8-.6-4.7,0-1.3,0-2.7,0-4.2,0-1.5,0-3,0-4.5,0-1.9.3-3.4.9-4.5.5-1.1,1.4-2,2.5-2.5,1.1-.5,2.7-.8,4.6-.8s4.6.6,5.7,1.8c1.2,1.2,1.8,3.2,1.9,6.1,0,1.1,0,2.4,0,4s0,3.3,0,5.1h-3.9c0-1.6,0-3.3.1-4.9s0-3.3,0-4.9c0-1.4-.4-2.4-1-3-.6-.6-1.6-.9-2.8-.9s-2.3.3-2.9.9c-.6.6-.9,1.6-1,3,0,1.5-.1,3.1-.1,4.6,0,1.6,0,3.1.1,4.6,0,1.8.3,3.1.6,4s1.2,1.5,2.4,1.8l2.9.7c1.6.4,2.8,1,3.6,1.8.8.8,1.4,1.8,1.7,3.1.3,1.3.5,2.8.6,4.6,0,1.2,0,2.3,0,3.1s0,1.7,0,2.5c0,.8,0,1.7,0,2.8,0,2.8-.7,4.8-1.9,6.1-1.2,1.2-3.2,1.9-5.9,1.9Z"/>
    <path class="cls-10" d="M472,400.4v-48h13.6v3.6h-9.6v18.4h9v3.6h-9v18.8h9.6v3.6h-13.6Z"/>
    <path class="cls-10" d="M491,400.4v-48h6.8l2.7,15.2,4.1,29.2h1.3l-.7-27.4-.2-17h3.9v48h-7l-3-17.2-3.5-27.2h-1.4l.6,26.5.3,18h-3.9Z"/>
    <path class="cls-10" d="M514.2,400.4l5.1-48h7.4l5.1,48h-4.1l-1.2-13.9h-7l-1.3,13.9h-4ZM519.9,382.9h6.3l-1-10.5-1.4-16.4h-1.7l-1.3,16.4-1,10.5Z"/>
    <path class="cls-10" d="M537.3,400.4v-48h7.2c2.7,0,4.7.6,6,1.8,1.2,1.2,1.9,3.2,1.9,6,0,2,0,3.8,0,5.2s0,3,0,4.4c0,1.7-.4,3-1,3.9-.6.9-1.5,1.6-2.7,2.1v1.1c1.3.4,2.2,1.1,2.7,2.1.6,1,.9,2.3.9,3.9,0,1.8,0,3.4,0,4.9s0,3.1,0,4.9c0,2.8-.8,4.7-2,6-1.2,1.2-3.2,1.8-6,1.8h-7.2ZM541.3,374.5h3.1c1.3,0,2.3-.4,3-1.2.6-.8,1-2,1-3.6,0-1.7.1-3.3.1-4.9s0-3.1-.1-4.8c0-1.4-.3-2.4-1-3-.6-.6-1.6-.9-2.9-.9h-3.2v18.4ZM541.3,396.8h3.2c1.3,0,2.3-.3,3-1,.6-.7,1-1.7,1-3.2,0-1.7,0-3.3,0-4.8s0-3.1,0-4.8c0-1.8-.4-3.1-1-3.9-.7-.8-1.7-1.1-3.1-1.1h-3v18.8Z"/>
    <path class="cls-10" d="M559,400.4v-48h4v44.4h9.6v3.6h-13.6Z"/>
    <path class="cls-10" d="M577.2,400.4v-48h13.6v3.6h-9.6v18.4h9v3.6h-9v18.8h9.6v3.6h-13.6Z"/>
    <path class="cls-10" d="M596.2,400.4v-48h7.3l2.9,19.6,1.9,24.6h1.1l1.9-24.6,2.9-19.6h7.3v48h-4v-14l.7-30.4h-1.4l-3.2,30.6-2.2,13.6h-5.3l-2.1-13.6-3.2-30.6h-1.3l.7,30.4v14h-4Z"/>
    <path class="cls-10" d="M628.8,400.4v-48h13.6v3.6h-9.6v18.4h9v3.6h-9v18.8h9.6v3.6h-13.6Z"/>
    <path class="cls-10" d="M647.8,400.4v-48h6.8l2.7,15.2,4.1,29.2h1.3l-.7-27.4-.2-17h3.9v48h-7l-3-17.2-3.5-27.2h-1.4l.6,26.5.3,18h-3.9Z"/>
    <path class="cls-10" d="M676.1,400.4v-44.4h-6.1v-3.6h16.2v3.6h-6.1v44.4h-4Z"/>
  </g>
</svg>