<?xml version="1.0" encoding="UTF-8"?>
<svg id="Layer_1" data-name="Layer 1" xmlns="http://www.w3.org/2000/svg" version="1.1" viewBox="0 0 664.1 70.7">
  <defs>
    <style>
      .cls-1 {
        fill: #010101;
      }

      .cls-1, .cls-2, .cls-3, .cls-4 {
        stroke-width: 0px;
      }

      .cls-2 {
        fill: #989898;
      }

      .cls-3 {
        fill: #007dc5;
      }

      .cls-5 {
        opacity: .5;
      }

      .cls-4 {
        fill: #fff;
      }
    </style>
  </defs>
  <g>
    <g id="Bottom_Line" data-name="Bottom Line">
      <rect id="Bottom_Line-2" data-name="Bottom Line" class="cls-4" x="545.5" y="60.1" width="107.6" height="2.3"/>
    </g>
    <g id="Top_Line" data-name="Top Line">
      <rect id="Top_Line-2" data-name="Top Line" class="cls-4" x="545.5" y="11.4" width="107.6" height="2.3"/>
    </g>
    <g id="Chevrons" class="cls-5">
      <g id="Chevron_1" data-name="Chevron 1">
        <path class="cls-2" d="M561,36.9,545.5,16.5h11.9l15.5,20.5-15.5,20.4h-11.9s15.5-20.4,15.5-20.4l-15.5-20.5h11.9l15.5,20.5M572.9,36.9,557.4,57.3h-11.9s15.5-20.4,15.5-20.4"/>
      </g>
      <g id="Chevron_2" data-name="Chevron 2">
        <path class="cls-2" d="M577.1,36.9,561.6,16.5h11.9l15.5,20.5-15.5,20.4h-11.9s15.5-20.4,15.5-20.4l-15.5-20.5h11.9l15.5,20.5M588.9,36.9,573.4,57.3h-11.9s15.5-20.4,15.5-20.4"/>
      </g>
      <g id="Chevron_3" data-name="Chevron 3">
        <path class="cls-2" d="M593.1,36.9,577.6,16.5h11.9l15.5,20.5-15.5,20.4h-11.9s15.5-20.4,15.5-20.4l-15.5-20.5h11.9l15.5,20.5M605,36.9,589.5,57.3h-11.9s15.5-20.4,15.5-20.4"/>
      </g>
      <g id="Chevron_4" data-name="Chevron 4">
        <path class="cls-2" d="M609.2,36.9,593.7,16.5h11.9l15.5,20.5-15.5,20.4h-11.9s15.5-20.4,15.5-20.4l-15.5-20.5h11.9l15.5,20.5M621.1,36.9,605.6,57.3h-11.9s15.5-20.4,15.5-20.4"/>
      </g>
      <g id="Chevron_5" data-name="Chevron 5">
        <path class="cls-2" d="M625.3,36.9,609.8,16.5h11.9l15.5,20.5-15.5,20.4h-11.9s15.5-20.4,15.5-20.4l-15.5-20.5h11.9l15.5,20.5M637.2,36.9,621.7,57.3h-11.9s15.5-20.4,15.5-20.4"/>
      </g>
      <g id="Chevron_6" data-name="Chevron 6">
        <path class="cls-2" d="M641.4,36.9,625.9,16.5h11.9l15.5,20.5-15.5,20.4h-11.9s15.5-20.4,15.5-20.4l-15.5-20.5h11.9l15.5,20.5M653.2,36.9,637.7,57.3h-11.9s15.5-20.4,15.5-20.4"/>
      </g>
    </g>
    <g id="Road_to_DX_Text" data-name="Road to DX Text">
      <path class="cls-4" d="M545.5,49.3v-24.8h4.9c1.8,0,3.2.4,4,1.2.8.8,1.3,2.1,1.3,3.9,0,.8,0,1.4,0,2.1,0,.6,0,1.2,0,1.8,0,.6,0,1.2,0,1.9,0,1.2-.2,2.1-.6,2.8-.4.7-.9,1.3-1.7,1.6l2.7,9.5h-3.6l-2.3-8.9h-1.4v8.9h-3.3ZM548.8,37.4h1.5c.7,0,1.2-.2,1.5-.5.3-.3.5-.8.5-1.4,0-.7,0-1.3,0-2,0-.7,0-1.4,0-2.1,0-.7,0-1.4,0-2,0-.6-.2-1.1-.5-1.4-.3-.3-.8-.5-1.5-.5h-1.5v9.9Z"/>
      <path class="cls-4" d="M563,49.5c-1.9,0-3.2-.4-4-1.2-.8-.8-1.3-2.1-1.3-3.9,0-1.2,0-2.5,0-3.8,0-1.3,0-2.5,0-3.8s0-2.5,0-3.8c0-1.3,0-2.5,0-3.8,0-1.8.5-3.1,1.3-3.9.8-.8,2.2-1.2,4-1.2s3.2.4,4,1.2c.8.8,1.2,2.1,1.3,3.9,0,1.3,0,2.5,0,3.8,0,1.3,0,2.5,0,3.8s0,2.5,0,3.8c0,1.3,0,2.5,0,3.8,0,1.8-.5,3.2-1.3,3.9-.8.8-2.1,1.2-4,1.2ZM563,46.8c.7,0,1.2-.1,1.5-.4.3-.3.5-.7.5-1.3,0-1.3,0-2.6,0-4,0-1.4,0-2.8,0-4.2s0-2.8,0-4.2c0-1.4,0-2.7,0-3.9,0-.6-.2-1.1-.5-1.3-.3-.3-.8-.4-1.5-.4s-1.1.1-1.4.4c-.3.3-.5.7-.5,1.3,0,1.3,0,2.6,0,3.9,0,1.4,0,2.7,0,4.2s0,2.8,0,4.2c0,1.4,0,2.7,0,4,0,.6.2,1.1.5,1.3.3.3.8.4,1.4.4Z"/>
      <path class="cls-4" d="M569.5,49.3l3-24.8h5.6l3,24.8h-3.4l-.6-6.2h-3.6l-.6,6.2h-3.4ZM573.8,40.1h3l-.5-5.4-.5-7.2h-.9l-.5,7.2-.5,5.4Z"/>
      <path class="cls-4" d="M582.6,49.3v-24.8h5.1c1.9,0,3.2.4,4.1,1.2.8.8,1.3,2.2,1.3,4,0,1.7,0,3.3,0,4.9,0,1.5,0,3.1,0,4.6,0,1.5,0,3.1,0,4.8,0,1.9-.5,3.2-1.3,4-.8.8-2.2,1.2-4.1,1.2h-5.1ZM586,46.3h1.8c.7,0,1.2-.2,1.5-.5.3-.3.5-.8.5-1.4,0-1.3,0-2.5,0-3.8,0-1.3,0-2.5,0-3.8s0-2.5,0-3.8c0-1.3,0-2.5,0-3.8,0-.6-.2-1.1-.5-1.4-.3-.3-.8-.5-1.5-.5h-1.8v18.9Z"/>
      <path class="cls-4" d="M603.7,49.3v-21.8h-3.6v-3h10.5v3h-3.6v21.8h-3.3Z"/>
      <path class="cls-4" d="M616.6,49.5c-1.9,0-3.2-.4-4-1.2-.8-.8-1.3-2.1-1.3-3.9,0-1.2,0-2.5,0-3.8,0-1.3,0-2.5,0-3.8s0-2.5,0-3.8c0-1.3,0-2.5,0-3.8,0-1.8.5-3.1,1.3-3.9.8-.8,2.2-1.2,4-1.2s3.2.4,4,1.2c.8.8,1.2,2.1,1.3,3.9,0,1.3,0,2.5,0,3.8,0,1.3,0,2.5,0,3.8s0,2.5,0,3.8c0,1.3,0,2.5,0,3.8,0,1.8-.5,3.2-1.3,3.9-.8.8-2.1,1.2-4,1.2ZM616.6,46.8c.7,0,1.2-.1,1.5-.4.3-.3.5-.7.5-1.3,0-1.3,0-2.6,0-4,0-1.4,0-2.8,0-4.2s0-2.8,0-4.2c0-1.4,0-2.7,0-3.9,0-.6-.2-1.1-.5-1.3-.3-.3-.8-.4-1.5-.4s-1.1.1-1.4.4c-.3.3-.5.7-.5,1.3,0,1.3,0,2.6,0,3.9,0,1.4,0,2.7,0,4.2s0,2.8,0,4.2c0,1.4,0,2.7,0,4,0,.6.2,1.1.5,1.3.3.3.8.4,1.4.4Z"/>
      <path class="cls-4" d="M630.5,49.3v-24.8h5.1c1.9,0,3.2.4,4.1,1.2.8.8,1.3,2.2,1.3,4,0,1.7,0,3.3,0,4.9,0,1.5,0,3.1,0,4.6,0,1.5,0,3.1,0,4.8,0,1.9-.5,3.2-1.3,4-.8.8-2.2,1.2-4.1,1.2h-5.1ZM633.8,46.3h1.8c.7,0,1.2-.2,1.5-.5.3-.3.5-.8.5-1.4,0-1.3,0-2.5,0-3.8,0-1.3,0-2.5,0-3.8s0-2.5,0-3.8c0-1.3,0-2.5,0-3.8,0-.6-.2-1.1-.5-1.4-.3-.3-.8-.5-1.5-.5h-1.8v18.9Z"/>
      <path class="cls-4" d="M641.8,49.3l3.3-12.8-3.2-12h3.3l1.3,5.8.6,4.9h.6l.6-4.9,1.3-5.8h3.3l-3.1,12.1,3.2,12.7h-3.3l-1.4-6.1-.6-5h-.6l-.7,5-1.5,6.1h-3.3Z"/>
    </g>
  </g>
  <g>
    <g>
      <path class="cls-4" d="M125.7,22.8c-7.2,0-13.1,6.1-13.1,13.6s5.9,13.6,13.1,13.6,13.1-6.1,13.1-13.6-5.9-13.6-13.1-13.6ZM125.7,46.2c-3.1,0-8-2.3-8-9.8s4.9-9.9,8-9.9,8,2.4,8,9.9-4.9,9.8-8,9.8Z"/>
      <path class="cls-4" d="M327,22.8c-7.2,0-13.1,6.1-13.1,13.6s5.9,13.6,13.1,13.6,13.1-6.1,13.1-13.6-5.9-13.6-13.1-13.6ZM327,46.2c-3.1,0-8-2.3-8-9.8s4.9-9.9,8-9.9,8,2.4,8,9.9-4.9,9.8-8,9.8Z"/>
      <rect class="cls-4" x="87.7" y="23.4" width="4.7" height="26"/>
      <rect class="cls-4" x="172.1" y="23.4" width="4.7" height="26"/>
      <rect class="cls-4" x="275.8" y="23.4" width="4.7" height="26"/>
      <path class="cls-4" d="M198.5,26.9h2.1l.2-3.4c-1-.1-1.8-.2-2.9-.2-10,0-16.5,5.4-16.5,13s6.5,13,16.5,13,1.8,0,2.9-.2l-.2-3.4h-2.1c-7.1,0-11.8-3.7-11.8-9.5s4.7-9.5,11.8-9.5Z"/>
      <path class="cls-4" d="M161.4,38.9c0,0,0,0,0,0-3.4-6.4-10.8-13-15.3-15.5h-3.2v26h4.4s-.2-20-.2-20.1c0,0,0,0,0,0,5.6,3.9,11.7,11.3,14.9,20.1h3.7v-26h-4.5s.2,15.5.2,15.5Z"/>
      <path class="cls-4" d="M305.4,38.9c0,0,0,0,0,0-3.4-6.4-10.8-13-15.3-15.5h-3.2v26h4.4s-.2-20-.2-20.1c0,0,0,0,0,0,5.6,3.9,11.7,11.3,14.9,20.1h3.7v-26h-4.5s.2,15.5.2,15.5Z"/>
      <path class="cls-4" d="M202.2,49.4h4.5s7-16.6,7.3-17.1c.3.6,8.6,17.1,8.6,17.1h5.3l-13.9-26.5-11.8,26.5Z"/>
      <path class="cls-4" d="M383.7,22.9l-11.8,26.5h4.5s7-16.6,7.3-17.1c.3.6,8.6,17.1,8.6,17.1h5.3l-13.9-26.5Z"/>
      <path class="cls-4" d="M100.9,34c2.7-2.8,10.2-10.6,10.2-10.6h-5.7l-10.8,11.4c5.2,3.4,9.5,8.1,12.2,14.6h5c-2-6.1-6-11.8-10.8-15.4Z"/>
      <polygon class="cls-4" points="348.9 23.4 344.1 23.4 344.1 49.4 359.2 49.4 359.2 45.8 348.9 45.8 348.9 23.4"/>
      <polygon class="cls-4" points="374.9 23.4 356.9 23.4 356.9 27 363.5 27 363.5 49.4 368.3 49.4 368.3 27 374.9 27 374.9 23.4"/>
      <path class="cls-4" d="M256.6,36.2c-.5.9-1.1,2.6-1.6,3.8,0,0,0,0,0,0-.4-1.2-1.1-2.9-1.6-3.8-2.3-4.7-5.8-11.2-8-13.4-1.3,2.3-6.2,22.3-7.2,26.6h4.7s3.7-17,3.7-17.1c0,0,0,0,0,0,1.6,2.5,4.8,8.9,6.7,14.8h3.1c1.8-5.5,5-12.3,6.6-14.8,0,0,0,0,0,0,0,0,3.8,17.1,3.8,17.1h4.7c-1-4.3-6-24.3-7.2-26.6-2.2,2.2-5.7,8.7-7.9,13.4Z"/>
    </g>
    <g>
      <g>
        <path class="cls-4" d="M13.2,29.5c0-.2.2-.3.4-.3,3.7.2,28.5,1.6,28.5,1.6,0,0,24.8-1.4,28.5-1.6.2,0,.3,0,.4.3-.2-.6-.4-1.1-.6-1.7.1.3,0,.5-.4.5-.6,0-13.5.2-13.5.2h-28.9s-12.9-.2-13.5-.2c-.3,0-.5-.2-.4-.5-.2.6-.4,1.1-.6,1.7Z"/>
        <path class="cls-4" d="M12.6,37c3.6,0,20.8.8,29.6.8,8.8,0,26-.7,29.6-.8.2,0,.4.1.4.3,0-.3,0-.6,0-.9s0-.6,0-.9c0,.2-.1.3-.4.3-3.6,0-20.8-.8-29.6-.8-8.8,0-26,.7-29.6.8-.2,0-.4-.1-.4-.3,0,.3,0,.6,0,.9s0,.6,0,.9c0-.2.1-.3.4-.3Z"/>
        <path class="cls-4" d="M12.4,33.4c0-.3.3-.4.5-.4.3,0,20.3,1.2,29.2,1.2,9,0,29-1.2,29.2-1.2.3,0,.5.1.5.4,0-.6-.2-1.3-.3-1.9,0,.2-.2.4-.4.4-3.7,0-23.1-.5-29-.5s-25.3.4-29,.5c-.2,0-.4-.2-.4-.4-.1.6-.2,1.2-.3,1.9Z"/>
        <path class="cls-4" d="M71.9,39.4c0,.3-.3.4-.5.4-.3,0-20.3-1.2-29.2-1.2-9,0-29,1.2-29.2,1.2-.3,0-.5-.1-.5-.4,0,.6.2,1.3.3,1.9,0-.3.2-.4.4-.4,3.7,0,23.1.5,29,.5s25.3-.4,29-.5c.2,0,.4.2.4.4.1-.6.2-1.2.3-1.9Z"/>
        <path class="cls-4" d="M71,43.3c0,.2-.2.3-.4.3-3.7-.2-28.5-1.6-28.5-1.6,0,0-24.8,1.4-28.5,1.6-.2,0-.3,0-.4-.3.2.6.4,1.1.6,1.7,0-.3,0-.5.4-.5.6,0,13.5-.2,13.5-.2h28.9s12.9.2,13.5.2c.3,0,.5.2.4.5.2-.6.4-1.1.6-1.7Z"/>
      </g>
      <g>
        <path class="cls-3" d="M42.1,10.4c13.1,0,24.2,7.3,28.3,17.3.1.3,0,.5-.3.5-.6,0-13.5.2-13.5.2h-28.9s-12.9-.2-13.5-.2c-.3,0-.5-.2-.3-.5,4.1-10,15.2-17.3,28.3-17.3"/>
        <path class="cls-3" d="M42.2,31.4c6,0,25.3.4,29,.5.3,0,.5-.2.4-.5,0-.3-.4-1.7-.5-1.9,0-.2-.2-.3-.4-.3-3.7.2-28.5,1.6-28.5,1.6h0s-24.8-1.4-28.5-1.6c-.2,0-.4.1-.4.3,0,.3-.5,1.6-.5,1.9,0,.3.2.5.4.5,3.7,0,23.1-.5,29-.5h0Z"/>
        <path class="cls-3" d="M42.1,35c8.8,0,26,.7,29.6.8.3,0,.4-.1.4-.4,0-.4-.1-1.7-.2-2,0-.3-.3-.5-.6-.5-.3,0-20.3,1.2-29.2,1.2-9,0-29-1.2-29.2-1.2-.3,0-.5.2-.6.5,0,.3-.2,1.6-.2,2,0,.2.1.4.4.4,3.6,0,20.8-.8,29.6-.8Z"/>
        <path class="cls-3" d="M42.1,62.4c13.1,0,24.2-7.3,28.3-17.3.1-.3,0-.5-.3-.5-.6,0-13.5-.2-13.5-.2h-28.9s-12.9.2-13.5.2c-.3,0-.5.2-.3.5,4.1,10,15.2,17.3,28.3,17.3"/>
        <path class="cls-3" d="M42.2,41.4c6,0,25.3-.4,29-.5.3,0,.5.2.4.5,0,.3-.4,1.7-.5,1.9,0,.2-.2.3-.4.3-3.7-.2-28.5-1.6-28.5-1.6h0s-24.8,1.4-28.5,1.6c-.2,0-.4,0-.4-.3,0-.3-.5-1.6-.5-1.9,0-.3.2-.5.4-.5,3.7,0,23.1.5,29,.5h0Z"/>
        <path class="cls-3" d="M42.1,37.8c8.8,0,26-.7,29.6-.8.3,0,.4.1.4.4,0,.4-.1,1.7-.2,2,0,.3-.3.5-.6.5-.3,0-20.3-1.2-29.2-1.2-9,0-29,1.2-29.2,1.2-.3,0-.5-.2-.6-.5,0-.3-.2-1.6-.2-2,0-.2.1-.4.4-.4,3.6,0,20.8.8,29.6.8Z"/>
      </g>
    </g>
  </g>
  <g>
    <line class="cls-1" x1="471.6" y1="10.4" x2="471.6" y2="62.4"/>
    <rect class="cls-4" x="470.1" y="10.4" width="3" height="52"/>
  </g>
</svg>