<?xml version="1.0" encoding="UTF-8"?>
<svg id="Layer_1" data-name="Layer 1" xmlns="http://www.w3.org/2000/svg" xmlns:xlink="http://www.w3.org/1999/xlink" version="1.1" viewBox="0 0 699 350.3">
  <defs>
    <style>
      .cls-1 {
        fill: url(#linear-gradient);
      }

      .cls-1, .cls-2, .cls-3, .cls-4, .cls-5, .cls-6, .cls-7, .cls-8, .cls-9, .cls-10 {
        stroke-width: 0px;
      }

      .cls-2 {
        fill: #999;
      }

      .cls-11 {
        opacity: .2;
      }

      .cls-12 {
        opacity: .5;
      }

      .cls-3 {
        fill: url(#linear-gradient-4);
      }

      .cls-4 {
        fill: url(#linear-gradient-2);
      }

      .cls-5 {
        fill: url(#linear-gradient-3);
      }

      .cls-6 {
        fill: url(#linear-gradient-8);
      }

      .cls-7 {
        fill: url(#linear-gradient-7);
      }

      .cls-8 {
        fill: url(#linear-gradient-5);
      }

      .cls-9 {
        fill: url(#linear-gradient-6);
      }

      .cls-10 {
        fill: #fff;
      }
    </style>
    <linearGradient id="linear-gradient" x1="44.4" y1="96.7" x2="44.4" y2="253.5" gradientUnits="userSpaceOnUse">
      <stop offset="0" stop-color="#fff"/>
      <stop offset="1" stop-color="#231f20"/>
    </linearGradient>
    <linearGradient id="linear-gradient-2" x1="121.7" y1="95.1" x2="121.7" y2="255.2" xlink:href="#linear-gradient"/>
    <linearGradient id="linear-gradient-3" x1="199.3" x2="199.3" xlink:href="#linear-gradient"/>
    <linearGradient id="linear-gradient-4" x1="279.1" x2="279.1" xlink:href="#linear-gradient"/>
    <linearGradient id="linear-gradient-5" x1="389" x2="389" xlink:href="#linear-gradient"/>
    <linearGradient id="linear-gradient-6" x1="460.6" y1="95.1" x2="460.6" y2="255.2" xlink:href="#linear-gradient"/>
    <linearGradient id="linear-gradient-7" x1="581.4" x2="581.4" xlink:href="#linear-gradient"/>
    <linearGradient id="linear-gradient-8" x1="655.4" x2="655.4" xlink:href="#linear-gradient"/>
  </defs>
  <g id="Bottom_Line" data-name="Bottom Line">
    <rect id="Bottom_Line-2" data-name="Bottom Line" class="cls-10" x="10.8" y="322.1" width="680" height="14.4"/>
  </g>
  <g id="Top_Line" data-name="Top Line">
    <rect id="Top_Line-2" data-name="Top Line" class="cls-10" x="10.8" y="14.1" width="680" height="14.4"/>
  </g>
  <g id="Chevrons" class="cls-12">
    <g id="Chevron_1" data-name="Chevron 1">
      <path class="cls-2" d="M108.8,175.6,10.8,46.1h75l98,129.5-98,129H10.8s98-129,98-129L10.8,46.1h75l98,129.5M183.8,175.6,85.8,304.6H10.8s98-129,98-129"/>
    </g>
    <g id="Chevron_2" data-name="Chevron 2">
      <path class="cls-2" d="M210.4,175.6,112.4,46.1h75l98,129.5-98,129h-75s98-129,98-129L112.4,46.1h75l98,129.5M285.4,175.6,187.4,304.6h-75s98-129,98-129"/>
    </g>
    <g id="Chevron_3" data-name="Chevron 3">
      <path class="cls-2" d="M312,175.6,214,46.1h75l98,129.5-98,129h-75s98-129,98-129L214,46.1h75l98,129.5M387,175.6,289,304.6h-75s98-129,98-129"/>
    </g>
    <g id="Chevron_4" data-name="Chevron 4">
      <path class="cls-2" d="M413.6,175.6,315.6,46.1h75l98,129.5-98,129h-75s98-129,98-129l-98-129.5h75l98,129.5M488.6,175.6,390.6,304.6h-75s98-129,98-129"/>
    </g>
    <g id="Chevron_5" data-name="Chevron 5">
      <path class="cls-2" d="M515.2,175.6,417.2,46.1h75l98,129.5-98,129h-75s98-129,98-129l-98-129.5h75l98,129.5M590.2,175.6,492.2,304.6h-75s98-129,98-129"/>
    </g>
    <g id="Chevron_6" data-name="Chevron 6">
      <path class="cls-2" d="M616.8,175.6,518.8,46.1h75l98,129.5-98,129h-75s98-129,98-129l-98-129.5h75l98,129.5M691.8,175.6,593.8,304.6h-75s98-129,98-129"/>
    </g>
  </g>
  <g id="Road_to_DX_Text" data-name="Road to DX Text">
    <path class="cls-10" d="M10.7,253.5V96.7h30.9c11.7,0,20.2,2.5,25.4,7.4,5.3,4.9,8.1,13.1,8.5,24.4.2,4.8.3,9.1.4,13.1,0,4,0,7.8,0,11.7,0,3.8-.2,7.9-.4,12.1-.3,7.4-1.5,13.4-3.8,18-2.3,4.6-5.8,8-10.7,10.2l17.1,60h-22.5l-14.7-56.4h-9v56.4H10.7ZM31.9,178.4h9.6c4.2,0,7.4-1,9.5-3,2.1-2,3.2-5,3.4-9,.2-4.2.3-8.5.4-12.9,0-4.4,0-8.8,0-13.2,0-4.4-.2-8.7-.4-12.9-.2-4-1.3-7-3.4-8.9-2.1-2-5.2-2.9-9.4-2.9h-9.7v62.8Z"/>
    <path class="cls-10" d="M121.7,255.2c-11.7,0-20.2-2.5-25.4-7.5-5.2-5-8-13.3-8.2-24.9-.1-7.8-.2-15.7-.3-23.7,0-8,0-16,0-24s0-16,0-23.9c0-7.9.2-15.9.3-23.8.3-11.6,3-19.8,8.2-24.8,5.2-5,13.7-7.5,25.4-7.5s20.3,2.5,25.4,7.5c5.1,5,7.8,13.3,8.1,24.8.2,8,.3,15.9.4,23.9,0,8,.1,15.9.1,23.9s0,15.9-.1,23.9c0,8-.2,15.9-.4,23.7-.3,11.6-3,19.9-8.1,24.9-5.1,5-13.6,7.5-25.4,7.5ZM121.7,237.7c4.2,0,7.4-.9,9.3-2.7,2-1.8,3-4.6,3-8.5.3-8.1.4-16.5.5-25.2,0-8.7.1-17.5.1-26.4s0-17.6-.2-26.3c-.1-8.6-.3-16.9-.5-24.9,0-3.9-1.1-6.7-3.1-8.4-2-1.8-5.1-2.6-9.2-2.6s-7.1.9-9.1,2.6c-2,1.8-3.1,4.6-3.2,8.4-.3,8-.5,16.3-.6,24.9-.1,8.6-.2,17.4-.2,26.3s0,17.7.2,26.4c.1,8.7.3,17.1.6,25.2.1,3.9,1.2,6.7,3.2,8.5,2,1.8,5.1,2.7,9.1,2.7Z"/>
    <path class="cls-10" d="M162.4,253.5l19.2-156.8h35.3l19.2,156.8h-21.7l-3.7-39.1h-22.9l-3.6,39.1h-21.8ZM189.9,195.5h18.8l-3.2-34.4-3.4-45.6h-5.5l-3.3,45.7-3.3,34.3Z"/>
    <path class="cls-10" d="M245.6,253.5V96.7h32.4c11.9,0,20.5,2.6,25.7,7.7,5.3,5.1,8,13.6,8.3,25.4.2,10.8.3,21,.4,30.7,0,9.7,0,19.4,0,29.1,0,9.7-.2,19.9-.4,30.6-.3,11.9-3,20.4-8.3,25.6-5.3,5.2-13.9,7.7-25.8,7.7h-32.3ZM266.8,234.7h11.2c4.3,0,7.5-1,9.6-3,2.1-2,3.2-5,3.2-9.1.2-8,.3-15.9.4-23.8,0-7.9,0-15.8,0-23.8s0-15.9,0-23.8c0-7.9-.2-15.9-.4-23.9,0-4-1.1-7-3.2-8.9-2.1-2-5.3-2.9-9.5-2.9h-11.3v119.2Z"/>
    <path class="cls-10" d="M378.4,253.5V115.6h-22.6v-18.8h66.3v18.8h-22.5v138h-21.2Z"/>
    <path class="cls-10" d="M460.5,255.2c-11.7,0-20.2-2.5-25.4-7.5-5.2-5-8-13.3-8.2-24.9-.1-7.8-.2-15.7-.3-23.7,0-8,0-16,0-24s0-16,0-23.9c0-7.9.2-15.9.3-23.8.3-11.6,3-19.8,8.2-24.8,5.2-5,13.7-7.5,25.4-7.5s20.3,2.5,25.4,7.5c5.1,5,7.8,13.3,8.1,24.8.2,8,.3,15.9.4,23.9,0,8,.1,15.9.1,23.9s0,15.9-.1,23.9c0,8-.2,15.9-.4,23.7-.3,11.6-3,19.9-8.1,24.9-5.1,5-13.6,7.5-25.4,7.5ZM460.5,237.7c4.2,0,7.4-.9,9.3-2.7,2-1.8,3-4.6,3-8.5.3-8.1.4-16.5.5-25.2,0-8.7.1-17.5.1-26.4s0-17.6-.2-26.3c-.1-8.6-.3-16.9-.5-24.9,0-3.9-1.1-6.7-3.1-8.4-2-1.8-5.1-2.6-9.2-2.6s-7.1.9-9.1,2.6c-2,1.8-3.1,4.6-3.2,8.4-.3,8-.5,16.3-.6,24.9-.1,8.6-.2,17.4-.2,26.3s0,17.7.2,26.4c.1,8.7.3,17.1.6,25.2.1,3.9,1.2,6.7,3.2,8.5,2,1.8,5.1,2.7,9.1,2.7Z"/>
    <path class="cls-10" d="M548,253.5V96.7h32.4c11.9,0,20.5,2.6,25.7,7.7,5.3,5.1,8,13.6,8.3,25.4.2,10.8.3,21,.4,30.7,0,9.7,0,19.4,0,29.1,0,9.7-.2,19.9-.4,30.6-.3,11.9-3,20.4-8.3,25.6-5.3,5.2-13.9,7.7-25.8,7.7h-32.3ZM569.1,234.7h11.2c4.3,0,7.5-1,9.6-3,2.1-2,3.2-5,3.2-9.1.2-8,.3-15.9.4-23.8,0-7.9,0-15.8,0-23.8s0-15.9,0-23.8c0-7.9-.2-15.9-.4-23.9,0-4-1.1-7-3.2-8.9-2.1-2-5.3-2.9-9.5-2.9h-11.3v119.2Z"/>
    <path class="cls-10" d="M619.6,253.5l21.2-80.8-20.4-76h20.8l8.5,36.8,4,30.7h3.9l3.8-30.7,8.3-36.8h20.8l-19.6,76.7,20.3,80.1h-20.7l-8.9-38.7-4-31.8h-3.9l-4.1,31.8-9.2,38.7h-20.8Z"/>
  </g>
  <g id="Road_to_DX_Text-2" data-name="Road to DX Text" class="cls-11">
    <path class="cls-1" d="M10.7,253.5V96.7h30.9c11.7,0,20.2,2.5,25.4,7.4,5.3,4.9,8.1,13.1,8.5,24.4.2,4.8.3,9.1.4,13.1,0,4,0,7.8,0,11.7,0,3.8-.2,7.9-.4,12.1-.3,7.4-1.5,13.4-3.8,18-2.3,4.6-5.8,8-10.7,10.2l17.1,60h-22.5l-14.7-56.4h-9v56.4H10.7ZM31.9,178.4h9.6c4.2,0,7.4-1,9.5-3,2.1-2,3.2-5,3.4-9,.2-4.2.3-8.5.4-12.9,0-4.4,0-8.8,0-13.2,0-4.4-.2-8.7-.4-12.9-.2-4-1.3-7-3.4-8.9-2.1-2-5.2-2.9-9.4-2.9h-9.7v62.8Z"/>
    <path class="cls-4" d="M121.7,255.2c-11.7,0-20.2-2.5-25.4-7.5-5.2-5-8-13.3-8.2-24.9-.1-7.8-.2-15.7-.3-23.7,0-8,0-16,0-24s0-16,0-23.9c0-7.9.2-15.9.3-23.8.3-11.6,3-19.8,8.2-24.8,5.2-5,13.7-7.5,25.4-7.5s20.3,2.5,25.4,7.5c5.1,5,7.8,13.3,8.1,24.8.2,8,.3,15.9.4,23.9,0,8,.1,15.9.1,23.9s0,15.9-.1,23.9c0,8-.2,15.9-.4,23.7-.3,11.6-3,19.9-8.1,24.9-5.1,5-13.6,7.5-25.4,7.5ZM121.7,237.7c4.2,0,7.4-.9,9.3-2.7,2-1.8,3-4.6,3-8.5.3-8.1.4-16.5.5-25.2,0-8.7.1-17.5.1-26.4s0-17.6-.2-26.3c-.1-8.6-.3-16.9-.5-24.9,0-3.9-1.1-6.7-3.1-8.4-2-1.8-5.1-2.6-9.2-2.6s-7.1.9-9.1,2.6c-2,1.8-3.1,4.6-3.2,8.4-.3,8-.5,16.3-.6,24.9-.1,8.6-.2,17.4-.2,26.3s0,17.7.2,26.4c.1,8.7.3,17.1.6,25.2.1,3.9,1.2,6.7,3.2,8.5,2,1.8,5.1,2.7,9.1,2.7Z"/>
    <path class="cls-5" d="M162.4,253.5l19.2-156.8h35.3l19.2,156.8h-21.7l-3.7-39.1h-22.9l-3.6,39.1h-21.8ZM189.9,195.5h18.8l-3.2-34.4-3.4-45.6h-5.5l-3.3,45.7-3.3,34.3Z"/>
    <path class="cls-3" d="M245.6,253.5V96.7h32.4c11.9,0,20.5,2.6,25.7,7.7,5.3,5.1,8,13.6,8.3,25.4.2,10.8.3,21,.4,30.7,0,9.7,0,19.4,0,29.1,0,9.7-.2,19.9-.4,30.6-.3,11.9-3,20.4-8.3,25.6-5.3,5.2-13.9,7.7-25.8,7.7h-32.3ZM266.8,234.7h11.2c4.3,0,7.5-1,9.6-3,2.1-2,3.2-5,3.2-9.1.2-8,.3-15.9.4-23.8,0-7.9,0-15.8,0-23.8s0-15.9,0-23.8c0-7.9-.2-15.9-.4-23.9,0-4-1.1-7-3.2-8.9-2.1-2-5.3-2.9-9.5-2.9h-11.3v119.2Z"/>
    <path class="cls-8" d="M378.4,253.5V115.6h-22.6v-18.8h66.3v18.8h-22.5v138h-21.2Z"/>
    <path class="cls-9" d="M460.5,255.2c-11.7,0-20.2-2.5-25.4-7.5-5.2-5-8-13.3-8.2-24.9-.1-7.8-.2-15.7-.3-23.7,0-8,0-16,0-24s0-16,0-23.9c0-7.9.2-15.9.3-23.8.3-11.6,3-19.8,8.2-24.8,5.2-5,13.7-7.5,25.4-7.5s20.3,2.5,25.4,7.5c5.1,5,7.8,13.3,8.1,24.8.2,8,.3,15.9.4,23.9,0,8,.1,15.9.1,23.9s0,15.9-.1,23.9c0,8-.2,15.9-.4,23.7-.3,11.6-3,19.9-8.1,24.9-5.1,5-13.6,7.5-25.4,7.5ZM460.5,237.7c4.2,0,7.4-.9,9.3-2.7,2-1.8,3-4.6,3-8.5.3-8.1.4-16.5.5-25.2,0-8.7.1-17.5.1-26.4s0-17.6-.2-26.3c-.1-8.6-.3-16.9-.5-24.9,0-3.9-1.1-6.7-3.1-8.4-2-1.8-5.1-2.6-9.2-2.6s-7.1.9-9.1,2.6c-2,1.8-3.1,4.6-3.2,8.4-.3,8-.5,16.3-.6,24.9-.1,8.6-.2,17.4-.2,26.3s0,17.7.2,26.4c.1,8.7.3,17.1.6,25.2.1,3.9,1.2,6.7,3.2,8.5,2,1.8,5.1,2.7,9.1,2.7Z"/>
    <path class="cls-7" d="M548,253.5V96.7h32.4c11.9,0,20.5,2.6,25.7,7.7,5.3,5.1,8,13.6,8.3,25.4.2,10.8.3,21,.4,30.7,0,9.7,0,19.4,0,29.1,0,9.7-.2,19.9-.4,30.6-.3,11.9-3,20.4-8.3,25.6-5.3,5.2-13.9,7.7-25.8,7.7h-32.3ZM569.1,234.7h11.2c4.3,0,7.5-1,9.6-3,2.1-2,3.2-5,3.2-9.1.2-8,.3-15.9.4-23.8,0-7.9,0-15.8,0-23.8s0-15.9,0-23.8c0-7.9-.2-15.9-.4-23.9,0-4-1.1-7-3.2-8.9-2.1-2-5.3-2.9-9.5-2.9h-11.3v119.2Z"/>
    <path class="cls-6" d="M619.6,253.5l21.2-80.8-20.4-76h20.8l8.5,36.8,4,30.7h3.9l3.8-30.7,8.3-36.8h20.8l-19.6,76.7,20.3,80.1h-20.7l-8.9-38.7-4-31.8h-3.9l-4.1,31.8-9.2,38.7h-20.8Z"/>
  </g>
</svg>