<?xml version="1.0" encoding="UTF-8"?>
<svg id="Layer_1" data-name="Layer 1" xmlns="http://www.w3.org/2000/svg" version="1.1" viewBox="0 0 465.5 95.1">
  <defs>
    <style>
      .cls-1 {
        fill: #010101;
      }

      .cls-1, .cls-2, .cls-3, .cls-4 {
        stroke-width: 0px;
      }

      .cls-2 {
        fill: #989898;
      }

      .cls-3 {
        fill: #007dc5;
      }

      .cls-5 {
        opacity: .5;
      }

      .cls-4 {
        fill: #fff;
      }
    </style>
  </defs>
  <g>
    <g id="Bottom_Line" data-name="Bottom Line">
      <rect id="Bottom_Line-2" data-name="Bottom Line" class="cls-4" x="290.1" y="82.9" width="166.6" height="3.5"/>
    </g>
    <g id="Top_Line" data-name="Top Line">
      <rect id="Top_Line-2" data-name="Top Line" class="cls-4" x="290.1" y="7.4" width="166.6" height="3.5"/>
    </g>
    <g id="Chevrons" class="cls-5">
      <g id="Chevron_1" data-name="Chevron 1">
        <path class="cls-2" d="M314.1,47,290.1,15.3h18.4l24,31.7-24,31.6h-18.4s24-31.6,24-31.6l-24-31.7h18.4l24,31.7M332.5,47,308.4,78.6h-18.4s24-31.6,24-31.6"/>
      </g>
      <g id="Chevron_2" data-name="Chevron 2">
        <path class="cls-2" d="M339,47,315,15.3h18.4l24,31.7-24,31.6h-18.4s24-31.6,24-31.6l-24-31.7h18.4l24,31.7M357.4,47,333.3,78.6h-18.4s24-31.6,24-31.6"/>
      </g>
      <g id="Chevron_3" data-name="Chevron 3">
        <path class="cls-2" d="M363.9,47,339.9,15.3h18.4l24,31.7-24,31.6h-18.4s24-31.6,24-31.6l-24-31.7h18.4l24,31.7M382.3,47,358.2,78.6h-18.4s24-31.6,24-31.6"/>
      </g>
      <g id="Chevron_4" data-name="Chevron 4">
        <path class="cls-2" d="M388.8,47,364.8,15.3h18.4l24,31.7-24,31.6h-18.4s24-31.6,24-31.6l-24-31.7h18.4l24,31.7M407.1,47,383.1,78.6h-18.4s24-31.6,24-31.6"/>
      </g>
      <g id="Chevron_5" data-name="Chevron 5">
        <path class="cls-2" d="M413.7,47,389.7,15.3h18.4l24,31.7-24,31.6h-18.4s24-31.6,24-31.6l-24-31.7h18.4l24,31.7M432,47,408,78.6h-18.4s24-31.6,24-31.6"/>
      </g>
      <g id="Chevron_6" data-name="Chevron 6">
        <path class="cls-2" d="M438.6,47,414.5,15.3h18.4l24,31.7-24,31.6h-18.4s24-31.6,24-31.6l-24-31.7h18.4l24,31.7M456.9,47,432.9,78.6h-18.4s24-31.6,24-31.6"/>
      </g>
    </g>
    <g id="Road_to_DX_Text" data-name="Road to DX Text">
      <path class="cls-4" d="M290,66.1V27.7h7.6c2.9,0,4.9.6,6.2,1.8,1.3,1.2,2,3.2,2.1,6,0,1.2,0,2.2,0,3.2,0,1,0,1.9,0,2.9,0,.9,0,1.9,0,3,0,1.8-.4,3.3-.9,4.4-.6,1.1-1.4,2-2.6,2.5l4.2,14.7h-5.5l-3.6-13.8h-2.2v13.8h-5.2ZM295.2,47.7h2.4c1,0,1.8-.2,2.3-.7.5-.5.8-1.2.8-2.2,0-1,0-2.1,0-3.2,0-1.1,0-2.2,0-3.2,0-1.1,0-2.1,0-3.2,0-1-.3-1.7-.8-2.2-.5-.5-1.3-.7-2.3-.7h-2.4v15.4Z"/>
      <path class="cls-4" d="M317.2,66.5c-2.9,0-4.9-.6-6.2-1.8-1.3-1.2-2-3.3-2-6.1,0-1.9,0-3.9,0-5.8,0-2,0-3.9,0-5.9s0-3.9,0-5.9c0-1.9,0-3.9,0-5.8,0-2.8.7-4.9,2-6.1,1.3-1.2,3.4-1.8,6.2-1.8s5,.6,6.2,1.8c1.2,1.2,1.9,3.3,2,6.1,0,2,0,3.9.1,5.9,0,2,0,3.9,0,5.8s0,3.9,0,5.8c0,2,0,3.9-.1,5.8,0,2.8-.7,4.9-2,6.1-1.2,1.2-3.3,1.8-6.2,1.8ZM317.2,62.2c1,0,1.8-.2,2.3-.7.5-.4.7-1.1.7-2.1,0-2,.1-4,.1-6.2,0-2.1,0-4.3,0-6.5s0-4.3,0-6.4c0-2.1,0-4.1-.1-6.1,0-.9-.3-1.6-.8-2.1-.5-.4-1.2-.6-2.3-.6s-1.7.2-2.2.6c-.5.4-.8,1.1-.8,2.1,0,2-.1,4-.1,6.1,0,2.1,0,4.3,0,6.4s0,4.3,0,6.5c0,2.1,0,4.2.1,6.2,0,.9.3,1.6.8,2.1.5.4,1.2.7,2.2.7Z"/>
      <path class="cls-4" d="M327.2,66.1l4.7-38.4h8.6l4.7,38.4h-5.3l-.9-9.6h-5.6l-.9,9.6h-5.3ZM333.9,51.9h4.6l-.8-8.4-.8-11.2h-1.3l-.8,11.2-.8,8.4Z"/>
      <path class="cls-4" d="M347.6,66.1V27.7h7.9c2.9,0,5,.6,6.3,1.9,1.3,1.3,2,3.3,2,6.2,0,2.6,0,5.2,0,7.5,0,2.4,0,4.8,0,7.1,0,2.4,0,4.9,0,7.5,0,2.9-.7,5-2,6.3-1.3,1.3-3.4,1.9-6.3,1.9h-7.9ZM352.8,61.5h2.7c1.1,0,1.8-.2,2.4-.7.5-.5.8-1.2.8-2.2,0-2,0-3.9,0-5.8,0-1.9,0-3.9,0-5.8s0-3.9,0-5.8c0-1.9,0-3.9,0-5.8,0-1-.3-1.7-.8-2.2-.5-.5-1.3-.7-2.3-.7h-2.8v29.2Z"/>
      <path class="cls-4" d="M380.1,66.1v-33.8h-5.5v-4.6h16.3v4.6h-5.5v33.8h-5.2Z"/>
      <path class="cls-4" d="M400.3,66.5c-2.9,0-4.9-.6-6.2-1.8-1.3-1.2-2-3.3-2-6.1,0-1.9,0-3.9,0-5.8,0-2,0-3.9,0-5.9s0-3.9,0-5.9c0-1.9,0-3.9,0-5.8,0-2.8.7-4.9,2-6.1,1.3-1.2,3.4-1.8,6.2-1.8s5,.6,6.2,1.8c1.2,1.2,1.9,3.3,2,6.1,0,2,0,3.9.1,5.9,0,2,0,3.9,0,5.8s0,3.9,0,5.8c0,2,0,3.9-.1,5.8,0,2.8-.7,4.9-2,6.1-1.2,1.2-3.3,1.8-6.2,1.8ZM400.3,62.2c1,0,1.8-.2,2.3-.7.5-.4.7-1.1.7-2.1,0-2,.1-4,.1-6.2,0-2.1,0-4.3,0-6.5s0-4.3,0-6.4c0-2.1,0-4.1-.1-6.1,0-.9-.3-1.6-.8-2.1-.5-.4-1.2-.6-2.3-.6s-1.7.2-2.2.6c-.5.4-.8,1.1-.8,2.1,0,2-.1,4-.1,6.1,0,2.1,0,4.3,0,6.4s0,4.3,0,6.5c0,2.1,0,4.2.1,6.2,0,.9.3,1.6.8,2.1.5.4,1.2.7,2.2.7Z"/>
      <path class="cls-4" d="M421.7,66.1V27.7h7.9c2.9,0,5,.6,6.3,1.9,1.3,1.3,2,3.3,2,6.2,0,2.6,0,5.2,0,7.5,0,2.4,0,4.8,0,7.1,0,2.4,0,4.9,0,7.5,0,2.9-.7,5-2,6.3-1.3,1.3-3.4,1.9-6.3,1.9h-7.9ZM426.9,61.5h2.7c1.1,0,1.8-.2,2.4-.7.5-.5.8-1.2.8-2.2,0-2,0-3.9,0-5.8,0-1.9,0-3.9,0-5.8s0-3.9,0-5.8c0-1.9,0-3.9,0-5.8,0-1-.3-1.7-.8-2.2-.5-.5-1.3-.7-2.3-.7h-2.8v29.2Z"/>
      <path class="cls-4" d="M439.2,66.1l5.2-19.8-5-18.6h5.1l2.1,9,1,7.5h1l.9-7.5,2-9h5.1l-4.8,18.8,5,19.6h-5.1l-2.2-9.5-1-7.8h-1l-1,7.8-2.3,9.5h-5.1Z"/>
    </g>
  </g>
  <g>
    <g>
      <g>
        <path class="cls-4" d="M41,36.4c3.9.1,22.7.9,32.3.8,9.6,0,28.4-.7,32.3-.8.3,0,.4.1.4.3,0-.3,0-.7,0-1s0-.7,0-1c0,.2-.1.3-.4.3-3.9-.1-22.7-.9-32.3-.8-9.6,0-28.4.7-32.3.8-.3,0-.4-.1-.4-.3,0,.3,0,.6,0,1s0,.6,0,1c0-.2.2-.3.4-.3Z"/>
        <path class="cls-4" d="M40.8,32.5c0-.3.3-.4.6-.4.3,0,22.1,1.3,31.9,1.3,9.8,0,31.6-1.3,31.9-1.3.3,0,.5.1.6.5,0-.7-.2-1.4-.4-2.1,0,.3-.2.4-.5.4-4.1,0-25.2-.5-31.7-.5h0c-6.5,0-27.6.5-31.7.5-.3,0-.5-.2-.5-.5-.1.7-.3,1.4-.4,2Z"/>
        <path class="cls-4" d="M41.7,28.2c0-.2.2-.3.5-.3,4,.2,31.1,1.7,31.1,1.7h0s27.1-1.5,31.1-1.7c.2,0,.4,0,.5.3-.2-.6-.4-1.2-.7-1.8.1.3,0,.5-.4.5-.7,0-14.7.2-14.7.2h-31.5s-14-.2-14.7-.2c-.3,0-.5-.2-.4-.5-.2.6-.5,1.2-.7,1.9Z"/>
        <path class="cls-4" d="M104.8,43.4c0,.2-.2.3-.5.3-4-.2-31.1-1.7-31.1-1.7h0s-27,1.5-31.1,1.7c-.2,0-.4,0-.5-.3.2.6.4,1.2.7,1.9-.1-.3,0-.5.4-.5.7,0,14.7-.2,14.7-.2h31.5s14,.2,14.7.2c.3,0,.5.2.4.5.2-.6.5-1.2.7-1.8Z"/>
        <path class="cls-4" d="M105.8,39c0,.3-.3.5-.6.5-.3,0-22.2-1.3-31.9-1.3-9.8,0-31.6,1.3-31.9,1.3-.3,0-.5-.1-.6-.4,0,.7.2,1.4.4,2,0-.3.2-.5.5-.5,4.1,0,25.2.5,31.7.5h0c6.5,0,27.6-.5,31.7-.5.3,0,.5.2.5.4.1-.7.3-1.4.4-2.1Z"/>
      </g>
      <g>
        <path class="cls-3" d="M73.3,7.4c14.3,0,26.4,7.9,30.9,18.9.1.3,0,.6-.4.6-.7,0-14.7.2-14.7.2h-31.5s-14-.2-14.7-.2c-.3,0-.5-.2-.4-.6,4.4-11,16.6-18.9,30.9-18.9"/>
        <path class="cls-3" d="M73.3,30.4c6.5,0,27.6.5,31.7.5.3,0,.5-.2.5-.5,0-.4-.5-1.8-.6-2.1,0-.3-.2-.4-.5-.4-4,.2-31.1,1.7-31.1,1.7h0s-27-1.5-31.1-1.7c-.3,0-.4.1-.5.4-.1.3-.5,1.7-.6,2.1,0,.3.2.5.5.5,4.1,0,25.2-.5,31.7-.5h0Z"/>
        <path class="cls-3" d="M73.3,34.3c9.6,0,28.4.7,32.3.8.3,0,.4-.1.4-.4,0-.5-.1-1.9-.2-2.2,0-.3-.3-.5-.6-.5-.3,0-22.2,1.3-31.9,1.3-9.8,0-31.6-1.3-31.9-1.3-.3,0-.6.2-.6.5,0,.3-.2,1.7-.2,2.2,0,.2.1.4.4.4,3.9-.1,22.7-.9,32.3-.8Z"/>
        <path class="cls-3" d="M73.3,64.1c14.3,0,26.4-7.9,30.9-18.9.1-.3,0-.6-.4-.6-.7,0-14.7-.2-14.7-.2h-31.5s-14,.2-14.7.2c-.3,0-.5.2-.4.6,4.4,11,16.6,18.9,30.9,18.9"/>
        <path class="cls-3" d="M73.3,41.2c6.5,0,27.6-.5,31.7-.5.3,0,.5.2.5.5,0,.4-.5,1.8-.6,2.1,0,.3-.2.4-.5.4-4-.2-31.1-1.7-31.1-1.7h0s-27,1.5-31.1,1.7c-.3,0-.4-.1-.5-.4-.1-.3-.5-1.7-.6-2.1,0-.3.2-.5.5-.5,4.1,0,25.2.5,31.7.5h0Z"/>
        <path class="cls-3" d="M73.3,37.3c9.6,0,28.4-.7,32.3-.8.3,0,.4.1.4.4,0,.5-.1,1.9-.2,2.2,0,.3-.3.5-.6.5-.3,0-22.2-1.3-31.9-1.3-9.8,0-31.6,1.3-31.9,1.3-.3,0-.6-.2-.6-.5,0-.3-.2-1.7-.2-2.2,0-.2.1-.4.4-.4,3.9.1,22.7.9,32.3.8Z"/>
      </g>
    </g>
    <g>
      <path class="cls-4" d="M23.1,74.1c-3.2,0-5.7,2.7-5.7,5.9s2.6,5.9,5.7,5.9,5.7-2.7,5.7-5.9-2.6-5.9-5.7-5.9ZM23.1,84.3c-1.4,0-3.5-1-3.5-4.3s2.1-4.3,3.5-4.3,3.5,1,3.5,4.3-2.1,4.3-3.5,4.3Z"/>
      <path class="cls-4" d="M111,74.1c-3.2,0-5.7,2.7-5.7,5.9s2.6,5.9,5.7,5.9,5.7-2.7,5.7-5.9-2.6-5.9-5.7-5.9ZM111,84.3c-1.4,0-3.5-1-3.5-4.3s2.1-4.3,3.5-4.3,3.5,1,3.5,4.3-2.1,4.3-3.5,4.3Z"/>
      <rect class="cls-4" x="6.5" y="74.3" width="2.1" height="11.3"/>
      <rect class="cls-4" x="43.4" y="74.3" width="2.1" height="11.3"/>
      <rect class="cls-4" x="88.7" y="74.3" width="2.1" height="11.3"/>
      <path class="cls-4" d="M54.9,75.9h.9v-1.5c-.3,0-.7,0-1.1,0-4.4,0-7.2,2.3-7.2,5.7s2.8,5.7,7.2,5.7.8,0,1.3,0v-1.5h-1c-3.1,0-5.2-1.6-5.2-4.2s2.1-4.1,5.2-4.1Z"/>
      <path class="cls-4" d="M38.7,81.1s0,0,0,0c-1.5-2.8-4.7-5.7-6.7-6.8h-1.4v11.3h1.9s0-8.7,0-8.8c0,0,0,0,0,0,2.4,1.7,5.1,4.9,6.5,8.8h1.6v-11.3h-1.9s0,6.8,0,6.8Z"/>
      <path class="cls-4" d="M101.6,81.1s0,0,0,0c-1.5-2.8-4.7-5.7-6.7-6.8h-1.4v11.3h1.9s0-8.7,0-8.8c0,0,0,0,0,0,2.5,1.7,5.1,4.9,6.5,8.8h1.6v-11.3h-1.9s0,6.8,0,6.8Z"/>
      <path class="cls-4" d="M56.5,85.7h2s3.1-7.2,3.2-7.5c.1.2,3.8,7.5,3.8,7.5h2.3l-6.1-11.6-5.2,11.6Z"/>
      <path class="cls-4" d="M135.8,74.1l-5.2,11.6h2s3.1-7.2,3.2-7.5c.1.2,3.8,7.5,3.8,7.5h2.3l-6.1-11.6Z"/>
      <path class="cls-4" d="M12.3,78.9c1.2-1.2,4.4-4.6,4.4-4.6h-2.5l-4.7,5c2.3,1.5,4.2,3.5,5.3,6.4h2.2c-.9-2.7-2.6-5.1-4.7-6.7Z"/>
      <polygon class="cls-4" points="120.6 74.3 118.5 74.3 118.5 85.7 125.1 85.7 125.1 84.1 120.6 84.1 120.6 74.3"/>
      <polygon class="cls-4" points="131.9 74.3 124.1 74.3 124.1 75.9 127 75.9 127 85.7 129 85.7 129 75.9 131.9 75.9 131.9 74.3"/>
      <path class="cls-4" d="M80.3,79.9c-.2.4-.5,1.1-.7,1.7,0,0,0,0,0,0-.2-.5-.5-1.3-.7-1.7-1-2.1-2.5-4.9-3.5-5.9-.5,1-2.7,9.7-3.2,11.6h2.1s1.6-7.4,1.6-7.5c0,0,0,0,0,0,.7,1.1,2.1,3.9,2.9,6.5h1.4c.8-2.4,2.2-5.4,2.9-6.5,0,0,0,0,0,0,0,0,1.7,7.5,1.7,7.5h2.1c-.5-1.9-2.6-10.6-3.2-11.6-1,1-2.5,3.8-3.5,5.8Z"/>
    </g>
  </g>
  <g>
    <line class="cls-1" x1="215.5" y1="20.7" x2="215.5" y2="72.7"/>
    <rect class="cls-4" x="214" y="20.7" width="3" height="52"/>
  </g>
</svg>